G04 #@! TF.FileFunction,Soldermask,Bot*
%FSLAX46Y46*%
G04 Gerber Fmt 4.6, Leading zero omitted, Abs format (unit mm)*
G04 Created by KiCad (PCBNEW 4.0.7-e2-6376~58~ubuntu16.04.1) date Thu Mar 10 23:02:34 2022*
%MOMM*%
%LPD*%
G01*
G04 APERTURE LIST*
%ADD10C,0.100000*%
%ADD11C,0.300000*%
%ADD12R,1.250000X1.500000*%
%ADD13R,1.700000X1.700000*%
%ADD14O,1.700000X1.700000*%
%ADD15R,1.600000X1.600000*%
%ADD16O,1.600000X1.600000*%
G04 APERTURE END LIST*
D10*
D11*
X137223142Y-92872571D02*
X137223142Y-90729714D01*
X136151714Y-92372571D02*
X136151714Y-91372571D01*
X136151714Y-90872571D02*
X136223143Y-90944000D01*
X136151714Y-91015429D01*
X136080286Y-90944000D01*
X136151714Y-90872571D01*
X136151714Y-91015429D01*
X134366000Y-90801143D02*
X135651714Y-92729714D01*
X133865999Y-92372571D02*
X133865999Y-91372571D01*
X133865999Y-91515429D02*
X133794571Y-91444000D01*
X133651713Y-91372571D01*
X133437428Y-91372571D01*
X133294571Y-91444000D01*
X133223142Y-91586857D01*
X133223142Y-92372571D01*
X133223142Y-91586857D02*
X133151713Y-91444000D01*
X133008856Y-91372571D01*
X132794571Y-91372571D01*
X132651713Y-91444000D01*
X132580285Y-91586857D01*
X132580285Y-92372571D01*
X131508856Y-92872571D02*
X131508856Y-90729714D01*
D12*
X140462000Y-37612000D03*
X140462000Y-40112000D03*
X181864000Y-70318000D03*
X181864000Y-67818000D03*
X181864000Y-49490000D03*
X181864000Y-46990000D03*
X140462000Y-50078000D03*
X140462000Y-52578000D03*
X141478000Y-65024000D03*
X141478000Y-67524000D03*
D13*
X181610000Y-80010000D03*
D14*
X181610000Y-82550000D03*
X179070000Y-80010000D03*
X179070000Y-82550000D03*
X176530000Y-80010000D03*
X176530000Y-82550000D03*
X173990000Y-80010000D03*
X173990000Y-82550000D03*
X171450000Y-80010000D03*
X171450000Y-82550000D03*
X168910000Y-80010000D03*
X168910000Y-82550000D03*
X166370000Y-80010000D03*
X166370000Y-82550000D03*
X163830000Y-80010000D03*
X163830000Y-82550000D03*
X161290000Y-80010000D03*
X161290000Y-82550000D03*
X158750000Y-80010000D03*
X158750000Y-82550000D03*
X156210000Y-80010000D03*
X156210000Y-82550000D03*
X153670000Y-80010000D03*
X153670000Y-82550000D03*
X151130000Y-80010000D03*
X151130000Y-82550000D03*
X148590000Y-80010000D03*
X148590000Y-82550000D03*
X146050000Y-80010000D03*
X146050000Y-82550000D03*
X143510000Y-80010000D03*
X143510000Y-82550000D03*
X140970000Y-80010000D03*
X140970000Y-82550000D03*
X138430000Y-80010000D03*
X138430000Y-82550000D03*
X135890000Y-80010000D03*
X135890000Y-82550000D03*
X133350000Y-80010000D03*
X133350000Y-82550000D03*
D15*
X161290000Y-87884000D03*
D16*
X133350000Y-95504000D03*
X158750000Y-87884000D03*
X135890000Y-95504000D03*
X156210000Y-87884000D03*
X138430000Y-95504000D03*
X153670000Y-87884000D03*
X140970000Y-95504000D03*
X151130000Y-87884000D03*
X143510000Y-95504000D03*
X148590000Y-87884000D03*
X146050000Y-95504000D03*
X146050000Y-87884000D03*
X148590000Y-95504000D03*
X143510000Y-87884000D03*
X151130000Y-95504000D03*
X140970000Y-87884000D03*
X153670000Y-95504000D03*
X138430000Y-87884000D03*
X156210000Y-95504000D03*
X135890000Y-87884000D03*
X158750000Y-95504000D03*
X133350000Y-87884000D03*
X161290000Y-95504000D03*
D15*
X181864000Y-36576000D03*
D16*
X143764000Y-51816000D03*
X179324000Y-36576000D03*
X146304000Y-51816000D03*
X176784000Y-36576000D03*
X148844000Y-51816000D03*
X174244000Y-36576000D03*
X151384000Y-51816000D03*
X171704000Y-36576000D03*
X153924000Y-51816000D03*
X169164000Y-36576000D03*
X156464000Y-51816000D03*
X166624000Y-36576000D03*
X159004000Y-51816000D03*
X164084000Y-36576000D03*
X161544000Y-51816000D03*
X161544000Y-36576000D03*
X164084000Y-51816000D03*
X159004000Y-36576000D03*
X166624000Y-51816000D03*
X156464000Y-36576000D03*
X169164000Y-51816000D03*
X153924000Y-36576000D03*
X171704000Y-51816000D03*
X151384000Y-36576000D03*
X174244000Y-51816000D03*
X148844000Y-36576000D03*
X176784000Y-51816000D03*
X146304000Y-36576000D03*
X179324000Y-51816000D03*
X143764000Y-36576000D03*
X181864000Y-51816000D03*
D15*
X181864000Y-58420000D03*
D16*
X143764000Y-73660000D03*
X179324000Y-58420000D03*
X146304000Y-73660000D03*
X176784000Y-58420000D03*
X148844000Y-73660000D03*
X174244000Y-58420000D03*
X151384000Y-73660000D03*
X171704000Y-58420000D03*
X153924000Y-73660000D03*
X169164000Y-58420000D03*
X156464000Y-73660000D03*
X166624000Y-58420000D03*
X159004000Y-73660000D03*
X164084000Y-58420000D03*
X161544000Y-73660000D03*
X161544000Y-58420000D03*
X164084000Y-73660000D03*
X159004000Y-58420000D03*
X166624000Y-73660000D03*
X156464000Y-58420000D03*
X169164000Y-73660000D03*
X153924000Y-58420000D03*
X171704000Y-73660000D03*
X151384000Y-58420000D03*
X174244000Y-73660000D03*
X148844000Y-58420000D03*
X176784000Y-73660000D03*
X146304000Y-58420000D03*
X179324000Y-73660000D03*
X143764000Y-58420000D03*
X181864000Y-73660000D03*
M02*
