G04 #@! TF.FileFunction,Legend,Top*
%FSLAX46Y46*%
G04 Gerber Fmt 4.6, Leading zero omitted, Abs format (unit mm)*
G04 Created by KiCad (PCBNEW 4.0.7-e2-6376~58~ubuntu16.04.1) date Thu Mar 10 23:02:34 2022*
%MOMM*%
%LPD*%
G01*
G04 APERTURE LIST*
%ADD10C,0.100000*%
%ADD11C,0.300000*%
%ADD12C,0.120000*%
%ADD13C,0.150000*%
G04 APERTURE END LIST*
D10*
D11*
X169831715Y-91010429D02*
X169903144Y-90939000D01*
X170046001Y-90867571D01*
X170403144Y-90867571D01*
X170546001Y-90939000D01*
X170617430Y-91010429D01*
X170688858Y-91153286D01*
X170688858Y-91296143D01*
X170617430Y-91510429D01*
X169760287Y-92367571D01*
X170688858Y-92367571D01*
X171403143Y-92367571D02*
X171688858Y-92367571D01*
X171831715Y-92296143D01*
X171903143Y-92224714D01*
X172046001Y-92010429D01*
X172117429Y-91724714D01*
X172117429Y-91153286D01*
X172046001Y-91010429D01*
X171974572Y-90939000D01*
X171831715Y-90867571D01*
X171546001Y-90867571D01*
X171403143Y-90939000D01*
X171331715Y-91010429D01*
X171260286Y-91153286D01*
X171260286Y-91510429D01*
X171331715Y-91653286D01*
X171403143Y-91724714D01*
X171546001Y-91796143D01*
X171831715Y-91796143D01*
X171974572Y-91724714D01*
X172046001Y-91653286D01*
X172117429Y-91510429D01*
X173260286Y-91581857D02*
X173474572Y-91653286D01*
X173546000Y-91724714D01*
X173617429Y-91867571D01*
X173617429Y-92081857D01*
X173546000Y-92224714D01*
X173474572Y-92296143D01*
X173331714Y-92367571D01*
X172760286Y-92367571D01*
X172760286Y-90867571D01*
X173260286Y-90867571D01*
X173403143Y-90939000D01*
X173474572Y-91010429D01*
X173546000Y-91153286D01*
X173546000Y-91296143D01*
X173474572Y-91439000D01*
X173403143Y-91510429D01*
X173260286Y-91581857D01*
X172760286Y-91581857D01*
X176117429Y-90867571D02*
X175403143Y-90867571D01*
X175331714Y-91581857D01*
X175403143Y-91510429D01*
X175546000Y-91439000D01*
X175903143Y-91439000D01*
X176046000Y-91510429D01*
X176117429Y-91581857D01*
X176188857Y-91724714D01*
X176188857Y-92081857D01*
X176117429Y-92224714D01*
X176046000Y-92296143D01*
X175903143Y-92367571D01*
X175546000Y-92367571D01*
X175403143Y-92296143D01*
X175331714Y-92224714D01*
X177617428Y-92367571D02*
X176760285Y-92367571D01*
X177188857Y-92367571D02*
X177188857Y-90867571D01*
X177046000Y-91081857D01*
X176903142Y-91224714D01*
X176760285Y-91296143D01*
X178188856Y-91010429D02*
X178260285Y-90939000D01*
X178403142Y-90867571D01*
X178760285Y-90867571D01*
X178903142Y-90939000D01*
X178974571Y-91010429D01*
X179045999Y-91153286D01*
X179045999Y-91296143D01*
X178974571Y-91510429D01*
X178117428Y-92367571D01*
X179045999Y-92367571D01*
X179688856Y-92367571D02*
X179688856Y-90867571D01*
X180545999Y-92367571D02*
X179903142Y-91510429D01*
X180545999Y-90867571D02*
X179688856Y-91724714D01*
X182260284Y-90796143D02*
X180974570Y-92724714D01*
X183545999Y-92367571D02*
X182688856Y-92367571D01*
X183117428Y-92367571D02*
X183117428Y-90867571D01*
X182974571Y-91081857D01*
X182831713Y-91224714D01*
X182688856Y-91296143D01*
X184188856Y-92367571D02*
X184188856Y-90867571D01*
X184688856Y-91939000D01*
X185188856Y-90867571D01*
X185188856Y-92367571D01*
X171974572Y-94917571D02*
X171474572Y-94203286D01*
X171117429Y-94917571D02*
X171117429Y-93417571D01*
X171688857Y-93417571D01*
X171831715Y-93489000D01*
X171903143Y-93560429D01*
X171974572Y-93703286D01*
X171974572Y-93917571D01*
X171903143Y-94060429D01*
X171831715Y-94131857D01*
X171688857Y-94203286D01*
X171117429Y-94203286D01*
X173260286Y-94917571D02*
X173260286Y-94131857D01*
X173188857Y-93989000D01*
X173046000Y-93917571D01*
X172760286Y-93917571D01*
X172617429Y-93989000D01*
X173260286Y-94846143D02*
X173117429Y-94917571D01*
X172760286Y-94917571D01*
X172617429Y-94846143D01*
X172546000Y-94703286D01*
X172546000Y-94560429D01*
X172617429Y-94417571D01*
X172760286Y-94346143D01*
X173117429Y-94346143D01*
X173260286Y-94274714D01*
X173974572Y-94917571D02*
X173974572Y-93917571D01*
X173974572Y-94060429D02*
X174046000Y-93989000D01*
X174188858Y-93917571D01*
X174403143Y-93917571D01*
X174546000Y-93989000D01*
X174617429Y-94131857D01*
X174617429Y-94917571D01*
X174617429Y-94131857D02*
X174688858Y-93989000D01*
X174831715Y-93917571D01*
X175046000Y-93917571D01*
X175188858Y-93989000D01*
X175260286Y-94131857D01*
X175260286Y-94917571D01*
X177688857Y-94846143D02*
X177546000Y-94917571D01*
X177260286Y-94917571D01*
X177117429Y-94846143D01*
X177046000Y-94703286D01*
X177046000Y-94131857D01*
X177117429Y-93989000D01*
X177260286Y-93917571D01*
X177546000Y-93917571D01*
X177688857Y-93989000D01*
X177760286Y-94131857D01*
X177760286Y-94274714D01*
X177046000Y-94417571D01*
X178260286Y-94917571D02*
X179046000Y-93917571D01*
X178260286Y-93917571D02*
X179046000Y-94917571D01*
X179617429Y-93917571D02*
X179617429Y-95417571D01*
X179617429Y-93989000D02*
X179760286Y-93917571D01*
X180046000Y-93917571D01*
X180188857Y-93989000D01*
X180260286Y-94060429D01*
X180331715Y-94203286D01*
X180331715Y-94631857D01*
X180260286Y-94774714D01*
X180188857Y-94846143D01*
X180046000Y-94917571D01*
X179760286Y-94917571D01*
X179617429Y-94846143D01*
X181974572Y-93917571D02*
X182331715Y-94917571D01*
X182688857Y-93917571D01*
X184046000Y-94917571D02*
X183188857Y-94917571D01*
X183617429Y-94917571D02*
X183617429Y-93417571D01*
X183474572Y-93631857D01*
X183331714Y-93774714D01*
X183188857Y-93846143D01*
X131234571Y-83693143D02*
X131306000Y-83764572D01*
X131377429Y-83907429D01*
X131377429Y-84264572D01*
X131306000Y-84407429D01*
X131234571Y-84478858D01*
X131091714Y-84550286D01*
X130948857Y-84550286D01*
X130734571Y-84478858D01*
X129877429Y-83621715D01*
X129877429Y-84550286D01*
X129877429Y-85978857D02*
X129877429Y-85121714D01*
X129877429Y-85550286D02*
X131377429Y-85550286D01*
X131163143Y-85407429D01*
X131020286Y-85264571D01*
X130948857Y-85121714D01*
X131234571Y-76327143D02*
X131306000Y-76398572D01*
X131377429Y-76541429D01*
X131377429Y-76898572D01*
X131306000Y-77041429D01*
X131234571Y-77112858D01*
X131091714Y-77184286D01*
X130948857Y-77184286D01*
X130734571Y-77112858D01*
X129877429Y-76255715D01*
X129877429Y-77184286D01*
X131377429Y-78112857D02*
X131377429Y-78255714D01*
X131306000Y-78398571D01*
X131234571Y-78470000D01*
X131091714Y-78541429D01*
X130806000Y-78612857D01*
X130448857Y-78612857D01*
X130163143Y-78541429D01*
X130020286Y-78470000D01*
X129948857Y-78398571D01*
X129877429Y-78255714D01*
X129877429Y-78112857D01*
X129948857Y-77970000D01*
X130020286Y-77898571D01*
X130163143Y-77827143D01*
X130448857Y-77755714D01*
X130806000Y-77755714D01*
X131091714Y-77827143D01*
X131234571Y-77898571D01*
X131306000Y-77970000D01*
X131377429Y-78112857D01*
X184725429Y-84407429D02*
X183725429Y-84407429D01*
X185296857Y-84050286D02*
X184225429Y-83693143D01*
X184225429Y-84621715D01*
X185225429Y-85478857D02*
X185225429Y-85621714D01*
X185154000Y-85764571D01*
X185082571Y-85836000D01*
X184939714Y-85907429D01*
X184654000Y-85978857D01*
X184296857Y-85978857D01*
X184011143Y-85907429D01*
X183868286Y-85836000D01*
X183796857Y-85764571D01*
X183725429Y-85621714D01*
X183725429Y-85478857D01*
X183796857Y-85336000D01*
X183868286Y-85264571D01*
X184011143Y-85193143D01*
X184296857Y-85121714D01*
X184654000Y-85121714D01*
X184939714Y-85193143D01*
X185082571Y-85264571D01*
X185154000Y-85336000D01*
X185225429Y-85478857D01*
X183725429Y-78152572D02*
X183725429Y-77295429D01*
X183725429Y-77724001D02*
X185225429Y-77724001D01*
X185011143Y-77581144D01*
X184868286Y-77438286D01*
X184796857Y-77295429D01*
D12*
X165012000Y-92464000D02*
X165012000Y-93464000D01*
X166712000Y-93464000D02*
X166712000Y-92464000D01*
X132020000Y-78680000D02*
X132020000Y-83880000D01*
X180340000Y-78680000D02*
X132020000Y-78680000D01*
X182940000Y-83880000D02*
X132020000Y-83880000D01*
X180340000Y-78680000D02*
X180340000Y-81280000D01*
X180340000Y-81280000D02*
X182940000Y-81280000D01*
X182940000Y-81280000D02*
X182940000Y-83880000D01*
X181610000Y-78680000D02*
X182940000Y-78680000D01*
X182940000Y-78680000D02*
X182940000Y-80010000D01*
X179660000Y-85480000D02*
X180860000Y-85480000D01*
X180860000Y-87240000D02*
X179660000Y-87240000D01*
X135648000Y-35932000D02*
X134448000Y-35932000D01*
X134448000Y-34172000D02*
X135648000Y-34172000D01*
D13*
X132893000Y-64394000D02*
X132893000Y-64419000D01*
X137043000Y-64394000D02*
X137043000Y-64499000D01*
X137043000Y-74544000D02*
X137043000Y-74439000D01*
X132893000Y-74544000D02*
X132893000Y-74439000D01*
X132893000Y-64394000D02*
X137043000Y-64394000D01*
X132893000Y-74544000D02*
X137043000Y-74544000D01*
X132893000Y-64419000D02*
X131518000Y-64419000D01*
X132959000Y-36962000D02*
X132959000Y-36987000D01*
X137109000Y-36962000D02*
X137109000Y-37067000D01*
X137109000Y-47112000D02*
X137109000Y-47007000D01*
X132959000Y-47112000D02*
X132959000Y-47007000D01*
X132959000Y-36962000D02*
X137109000Y-36962000D01*
X132959000Y-47112000D02*
X137109000Y-47112000D01*
X132959000Y-36987000D02*
X131584000Y-36987000D01*
D12*
X162620000Y-92694000D02*
G75*
G02X162620000Y-90694000I0J1000000D01*
G01*
X162620000Y-90694000D02*
X162620000Y-89044000D01*
X162620000Y-89044000D02*
X132020000Y-89044000D01*
X132020000Y-89044000D02*
X132020000Y-94344000D01*
X132020000Y-94344000D02*
X162620000Y-94344000D01*
X162620000Y-94344000D02*
X162620000Y-92694000D01*
X162680000Y-86554000D02*
X131960000Y-86554000D01*
X131960000Y-86554000D02*
X131960000Y-96834000D01*
X131960000Y-96834000D02*
X162680000Y-96834000D01*
X162680000Y-96834000D02*
X162680000Y-86554000D01*
D13*
X132893000Y-50170000D02*
X132893000Y-50195000D01*
X137043000Y-50170000D02*
X137043000Y-50275000D01*
X137043000Y-60320000D02*
X137043000Y-60215000D01*
X132893000Y-60320000D02*
X132893000Y-60215000D01*
X132893000Y-50170000D02*
X137043000Y-50170000D01*
X132893000Y-60320000D02*
X137043000Y-60320000D01*
X132893000Y-50195000D02*
X131518000Y-50195000D01*
D12*
X183194000Y-45196000D02*
G75*
G02X183194000Y-43196000I0J1000000D01*
G01*
X183194000Y-43196000D02*
X183194000Y-37736000D01*
X183194000Y-37736000D02*
X142434000Y-37736000D01*
X142434000Y-37736000D02*
X142434000Y-50656000D01*
X142434000Y-50656000D02*
X183194000Y-50656000D01*
X183194000Y-50656000D02*
X183194000Y-45196000D01*
X183254000Y-35246000D02*
X142374000Y-35246000D01*
X142374000Y-35246000D02*
X142374000Y-53146000D01*
X142374000Y-53146000D02*
X183254000Y-53146000D01*
X183254000Y-53146000D02*
X183254000Y-35246000D01*
X183194000Y-67040000D02*
G75*
G02X183194000Y-65040000I0J1000000D01*
G01*
X183194000Y-65040000D02*
X183194000Y-59580000D01*
X183194000Y-59580000D02*
X142434000Y-59580000D01*
X142434000Y-59580000D02*
X142434000Y-72500000D01*
X142434000Y-72500000D02*
X183194000Y-72500000D01*
X183194000Y-72500000D02*
X183194000Y-67040000D01*
X183254000Y-57090000D02*
X142374000Y-57090000D01*
X142374000Y-57090000D02*
X142374000Y-74990000D01*
X142374000Y-74990000D02*
X183254000Y-74990000D01*
X183254000Y-74990000D02*
X183254000Y-57090000D01*
D13*
X168064381Y-94083047D02*
X168064381Y-94654476D01*
X168064381Y-94368762D02*
X167064381Y-94368762D01*
X167207238Y-94464000D01*
X167302476Y-94559238D01*
X167350095Y-94654476D01*
X167064381Y-93464000D02*
X167064381Y-93368761D01*
X167112000Y-93273523D01*
X167159619Y-93225904D01*
X167254857Y-93178285D01*
X167445333Y-93130666D01*
X167683429Y-93130666D01*
X167873905Y-93178285D01*
X167969143Y-93225904D01*
X168016762Y-93273523D01*
X168064381Y-93368761D01*
X168064381Y-93464000D01*
X168016762Y-93559238D01*
X167969143Y-93606857D01*
X167873905Y-93654476D01*
X167683429Y-93702095D01*
X167445333Y-93702095D01*
X167254857Y-93654476D01*
X167159619Y-93606857D01*
X167112000Y-93559238D01*
X167064381Y-93464000D01*
X167064381Y-92511619D02*
X167064381Y-92416380D01*
X167112000Y-92321142D01*
X167159619Y-92273523D01*
X167254857Y-92225904D01*
X167445333Y-92178285D01*
X167683429Y-92178285D01*
X167873905Y-92225904D01*
X167969143Y-92273523D01*
X168016762Y-92321142D01*
X168064381Y-92416380D01*
X168064381Y-92511619D01*
X168016762Y-92606857D01*
X167969143Y-92654476D01*
X167873905Y-92702095D01*
X167683429Y-92749714D01*
X167445333Y-92749714D01*
X167254857Y-92702095D01*
X167159619Y-92654476D01*
X167112000Y-92606857D01*
X167064381Y-92511619D01*
X167397714Y-91749714D02*
X168064381Y-91749714D01*
X167492952Y-91749714D02*
X167445333Y-91702095D01*
X167397714Y-91606857D01*
X167397714Y-91463999D01*
X167445333Y-91368761D01*
X167540571Y-91321142D01*
X168064381Y-91321142D01*
X183606667Y-80732381D02*
X183606667Y-81446667D01*
X183559047Y-81589524D01*
X183463809Y-81684762D01*
X183320952Y-81732381D01*
X183225714Y-81732381D01*
X184606667Y-81732381D02*
X184035238Y-81732381D01*
X184320952Y-81732381D02*
X184320952Y-80732381D01*
X184225714Y-80875238D01*
X184130476Y-80970476D01*
X184035238Y-81018095D01*
X178982762Y-88590381D02*
X178411333Y-88590381D01*
X178697047Y-88590381D02*
X178697047Y-87590381D01*
X178601809Y-87733238D01*
X178506571Y-87828476D01*
X178411333Y-87876095D01*
X179601809Y-87590381D02*
X179697048Y-87590381D01*
X179792286Y-87638000D01*
X179839905Y-87685619D01*
X179887524Y-87780857D01*
X179935143Y-87971333D01*
X179935143Y-88209429D01*
X179887524Y-88399905D01*
X179839905Y-88495143D01*
X179792286Y-88542762D01*
X179697048Y-88590381D01*
X179601809Y-88590381D01*
X179506571Y-88542762D01*
X179458952Y-88495143D01*
X179411333Y-88399905D01*
X179363714Y-88209429D01*
X179363714Y-87971333D01*
X179411333Y-87780857D01*
X179458952Y-87685619D01*
X179506571Y-87638000D01*
X179601809Y-87590381D01*
X180363714Y-88590381D02*
X180363714Y-87590381D01*
X180458952Y-88209429D02*
X180744667Y-88590381D01*
X180744667Y-87923714D02*
X180363714Y-88304667D01*
X138564953Y-35250381D02*
X137993524Y-35250381D01*
X138279238Y-35250381D02*
X138279238Y-34250381D01*
X138184000Y-34393238D01*
X138088762Y-34488476D01*
X137993524Y-34536095D01*
X138993524Y-35250381D02*
X138993524Y-34250381D01*
X139088762Y-34869429D02*
X139374477Y-35250381D01*
X139374477Y-34583714D02*
X138993524Y-34964667D01*
X131572095Y-62698381D02*
X131572095Y-63507905D01*
X131619714Y-63603143D01*
X131667333Y-63650762D01*
X131762571Y-63698381D01*
X131953048Y-63698381D01*
X132048286Y-63650762D01*
X132095905Y-63603143D01*
X132143524Y-63507905D01*
X132143524Y-62698381D01*
X133143524Y-63698381D02*
X132572095Y-63698381D01*
X132857809Y-63698381D02*
X132857809Y-62698381D01*
X132762571Y-62841238D01*
X132667333Y-62936476D01*
X132572095Y-62984095D01*
X134580381Y-73746857D02*
X134580381Y-73080190D01*
X135580381Y-73508762D01*
X134913714Y-72270666D02*
X135580381Y-72270666D01*
X134532762Y-72508762D02*
X135247048Y-72746857D01*
X135247048Y-72127809D01*
X135580381Y-71746857D02*
X134580381Y-71746857D01*
X135056571Y-71746857D02*
X135056571Y-71175428D01*
X135580381Y-71175428D02*
X134580381Y-71175428D01*
X135485143Y-70127809D02*
X135532762Y-70175428D01*
X135580381Y-70318285D01*
X135580381Y-70413523D01*
X135532762Y-70556381D01*
X135437524Y-70651619D01*
X135342286Y-70699238D01*
X135151810Y-70746857D01*
X135008952Y-70746857D01*
X134818476Y-70699238D01*
X134723238Y-70651619D01*
X134628000Y-70556381D01*
X134580381Y-70413523D01*
X134580381Y-70318285D01*
X134628000Y-70175428D01*
X134675619Y-70127809D01*
X134580381Y-69842095D02*
X134580381Y-69270666D01*
X135580381Y-69556381D02*
X134580381Y-69556381D01*
X135580381Y-68413523D02*
X135580381Y-68984952D01*
X135580381Y-68699238D02*
X134580381Y-68699238D01*
X134723238Y-68794476D01*
X134818476Y-68889714D01*
X134866095Y-68984952D01*
X134580381Y-68080190D02*
X134580381Y-67461142D01*
X134961333Y-67794476D01*
X134961333Y-67651618D01*
X135008952Y-67556380D01*
X135056571Y-67508761D01*
X135151810Y-67461142D01*
X135389905Y-67461142D01*
X135485143Y-67508761D01*
X135532762Y-67556380D01*
X135580381Y-67651618D01*
X135580381Y-67937333D01*
X135532762Y-68032571D01*
X135485143Y-68080190D01*
X135580381Y-66984952D02*
X135580381Y-66794476D01*
X135532762Y-66699237D01*
X135485143Y-66651618D01*
X135342286Y-66556380D01*
X135151810Y-66508761D01*
X134770857Y-66508761D01*
X134675619Y-66556380D01*
X134628000Y-66603999D01*
X134580381Y-66699237D01*
X134580381Y-66889714D01*
X134628000Y-66984952D01*
X134675619Y-67032571D01*
X134770857Y-67080190D01*
X135008952Y-67080190D01*
X135104190Y-67032571D01*
X135151810Y-66984952D01*
X135199429Y-66889714D01*
X135199429Y-66699237D01*
X135151810Y-66603999D01*
X135104190Y-66556380D01*
X135008952Y-66508761D01*
X130302095Y-35520381D02*
X130302095Y-36329905D01*
X130349714Y-36425143D01*
X130397333Y-36472762D01*
X130492571Y-36520381D01*
X130683048Y-36520381D01*
X130778286Y-36472762D01*
X130825905Y-36425143D01*
X130873524Y-36329905D01*
X130873524Y-35520381D01*
X131302095Y-35615619D02*
X131349714Y-35568000D01*
X131444952Y-35520381D01*
X131683048Y-35520381D01*
X131778286Y-35568000D01*
X131825905Y-35615619D01*
X131873524Y-35710857D01*
X131873524Y-35806095D01*
X131825905Y-35948952D01*
X131254476Y-36520381D01*
X131873524Y-36520381D01*
X134834381Y-45806857D02*
X134834381Y-45140190D01*
X135834381Y-45568762D01*
X135167714Y-44330666D02*
X135834381Y-44330666D01*
X134786762Y-44568762D02*
X135501048Y-44806857D01*
X135501048Y-44187809D01*
X135834381Y-43806857D02*
X134834381Y-43806857D01*
X135310571Y-43806857D02*
X135310571Y-43235428D01*
X135834381Y-43235428D02*
X134834381Y-43235428D01*
X135739143Y-42187809D02*
X135786762Y-42235428D01*
X135834381Y-42378285D01*
X135834381Y-42473523D01*
X135786762Y-42616381D01*
X135691524Y-42711619D01*
X135596286Y-42759238D01*
X135405810Y-42806857D01*
X135262952Y-42806857D01*
X135072476Y-42759238D01*
X134977238Y-42711619D01*
X134882000Y-42616381D01*
X134834381Y-42473523D01*
X134834381Y-42378285D01*
X134882000Y-42235428D01*
X134929619Y-42187809D01*
X134834381Y-41902095D02*
X134834381Y-41330666D01*
X135834381Y-41616381D02*
X134834381Y-41616381D01*
X135834381Y-40473523D02*
X135834381Y-41044952D01*
X135834381Y-40759238D02*
X134834381Y-40759238D01*
X134977238Y-40854476D01*
X135072476Y-40949714D01*
X135120095Y-41044952D01*
X134834381Y-40140190D02*
X134834381Y-39473523D01*
X135834381Y-39902095D01*
X134834381Y-38616380D02*
X134834381Y-39092571D01*
X135310571Y-39140190D01*
X135262952Y-39092571D01*
X135215333Y-38997333D01*
X135215333Y-38759237D01*
X135262952Y-38663999D01*
X135310571Y-38616380D01*
X135405810Y-38568761D01*
X135643905Y-38568761D01*
X135739143Y-38616380D01*
X135786762Y-38663999D01*
X135834381Y-38759237D01*
X135834381Y-38997333D01*
X135786762Y-39092571D01*
X135739143Y-39140190D01*
X162858095Y-91146381D02*
X162858095Y-91955905D01*
X162905714Y-92051143D01*
X162953333Y-92098762D01*
X163048571Y-92146381D01*
X163239048Y-92146381D01*
X163334286Y-92098762D01*
X163381905Y-92051143D01*
X163429524Y-91955905D01*
X163429524Y-91146381D01*
X163810476Y-91146381D02*
X164429524Y-91146381D01*
X164096190Y-91527333D01*
X164239048Y-91527333D01*
X164334286Y-91574952D01*
X164381905Y-91622571D01*
X164429524Y-91717810D01*
X164429524Y-91955905D01*
X164381905Y-92051143D01*
X164334286Y-92098762D01*
X164239048Y-92146381D01*
X163953333Y-92146381D01*
X163858095Y-92098762D01*
X163810476Y-92051143D01*
X131826095Y-48697381D02*
X131826095Y-49506905D01*
X131873714Y-49602143D01*
X131921333Y-49649762D01*
X132016571Y-49697381D01*
X132207048Y-49697381D01*
X132302286Y-49649762D01*
X132349905Y-49602143D01*
X132397524Y-49506905D01*
X132397524Y-48697381D01*
X133302286Y-49030714D02*
X133302286Y-49697381D01*
X133064190Y-48649762D02*
X132826095Y-49364048D01*
X133445143Y-49364048D01*
X134420381Y-58506857D02*
X134420381Y-57840190D01*
X135420381Y-58268762D01*
X134753714Y-57030666D02*
X135420381Y-57030666D01*
X134372762Y-57268762D02*
X135087048Y-57506857D01*
X135087048Y-56887809D01*
X135420381Y-56506857D02*
X134420381Y-56506857D01*
X134896571Y-56506857D02*
X134896571Y-55935428D01*
X135420381Y-55935428D02*
X134420381Y-55935428D01*
X135325143Y-54887809D02*
X135372762Y-54935428D01*
X135420381Y-55078285D01*
X135420381Y-55173523D01*
X135372762Y-55316381D01*
X135277524Y-55411619D01*
X135182286Y-55459238D01*
X134991810Y-55506857D01*
X134848952Y-55506857D01*
X134658476Y-55459238D01*
X134563238Y-55411619D01*
X134468000Y-55316381D01*
X134420381Y-55173523D01*
X134420381Y-55078285D01*
X134468000Y-54935428D01*
X134515619Y-54887809D01*
X134420381Y-54602095D02*
X134420381Y-54030666D01*
X135420381Y-54316381D02*
X134420381Y-54316381D01*
X135420381Y-53173523D02*
X135420381Y-53744952D01*
X135420381Y-53459238D02*
X134420381Y-53459238D01*
X134563238Y-53554476D01*
X134658476Y-53649714D01*
X134706095Y-53744952D01*
X134420381Y-52840190D02*
X134420381Y-52173523D01*
X135420381Y-52602095D01*
X134420381Y-51316380D02*
X134420381Y-51792571D01*
X134896571Y-51840190D01*
X134848952Y-51792571D01*
X134801333Y-51697333D01*
X134801333Y-51459237D01*
X134848952Y-51363999D01*
X134896571Y-51316380D01*
X134991810Y-51268761D01*
X135229905Y-51268761D01*
X135325143Y-51316380D01*
X135372762Y-51363999D01*
X135420381Y-51459237D01*
X135420381Y-51697333D01*
X135372762Y-51792571D01*
X135325143Y-51840190D01*
X183432095Y-43648381D02*
X183432095Y-44457905D01*
X183479714Y-44553143D01*
X183527333Y-44600762D01*
X183622571Y-44648381D01*
X183813048Y-44648381D01*
X183908286Y-44600762D01*
X183955905Y-44553143D01*
X184003524Y-44457905D01*
X184003524Y-43648381D01*
X184955905Y-43648381D02*
X184479714Y-43648381D01*
X184432095Y-44124571D01*
X184479714Y-44076952D01*
X184574952Y-44029333D01*
X184813048Y-44029333D01*
X184908286Y-44076952D01*
X184955905Y-44124571D01*
X185003524Y-44219810D01*
X185003524Y-44457905D01*
X184955905Y-44553143D01*
X184908286Y-44600762D01*
X184813048Y-44648381D01*
X184574952Y-44648381D01*
X184479714Y-44600762D01*
X184432095Y-44553143D01*
X183432095Y-65492381D02*
X183432095Y-66301905D01*
X183479714Y-66397143D01*
X183527333Y-66444762D01*
X183622571Y-66492381D01*
X183813048Y-66492381D01*
X183908286Y-66444762D01*
X183955905Y-66397143D01*
X184003524Y-66301905D01*
X184003524Y-65492381D01*
X184908286Y-65492381D02*
X184717809Y-65492381D01*
X184622571Y-65540000D01*
X184574952Y-65587619D01*
X184479714Y-65730476D01*
X184432095Y-65920952D01*
X184432095Y-66301905D01*
X184479714Y-66397143D01*
X184527333Y-66444762D01*
X184622571Y-66492381D01*
X184813048Y-66492381D01*
X184908286Y-66444762D01*
X184955905Y-66397143D01*
X185003524Y-66301905D01*
X185003524Y-66063810D01*
X184955905Y-65968571D01*
X184908286Y-65920952D01*
X184813048Y-65873333D01*
X184622571Y-65873333D01*
X184527333Y-65920952D01*
X184479714Y-65968571D01*
X184432095Y-66063810D01*
M02*
