G04 #@! TF.FileFunction,Soldermask,Top*
%FSLAX46Y46*%
G04 Gerber Fmt 4.6, Leading zero omitted, Abs format (unit mm)*
G04 Created by KiCad (PCBNEW 4.0.7-e2-6376~58~ubuntu16.04.1) date Thu Mar 10 23:02:34 2022*
%MOMM*%
%LPD*%
G01*
G04 APERTURE LIST*
%ADD10C,0.100000*%
%ADD11R,1.250000X1.500000*%
%ADD12R,1.700000X1.700000*%
%ADD13O,1.700000X1.700000*%
%ADD14R,1.500000X1.300000*%
%ADD15R,1.500000X0.600000*%
%ADD16R,1.600000X1.600000*%
%ADD17O,1.600000X1.600000*%
G04 APERTURE END LIST*
D10*
D11*
X165862000Y-94214000D03*
X165862000Y-91714000D03*
D12*
X181610000Y-80010000D03*
D13*
X181610000Y-82550000D03*
X179070000Y-80010000D03*
X179070000Y-82550000D03*
X176530000Y-80010000D03*
X176530000Y-82550000D03*
X173990000Y-80010000D03*
X173990000Y-82550000D03*
X171450000Y-80010000D03*
X171450000Y-82550000D03*
X168910000Y-80010000D03*
X168910000Y-82550000D03*
X166370000Y-80010000D03*
X166370000Y-82550000D03*
X163830000Y-80010000D03*
X163830000Y-82550000D03*
X161290000Y-80010000D03*
X161290000Y-82550000D03*
X158750000Y-80010000D03*
X158750000Y-82550000D03*
X156210000Y-80010000D03*
X156210000Y-82550000D03*
X153670000Y-80010000D03*
X153670000Y-82550000D03*
X151130000Y-80010000D03*
X151130000Y-82550000D03*
X148590000Y-80010000D03*
X148590000Y-82550000D03*
X146050000Y-80010000D03*
X146050000Y-82550000D03*
X143510000Y-80010000D03*
X143510000Y-82550000D03*
X140970000Y-80010000D03*
X140970000Y-82550000D03*
X138430000Y-80010000D03*
X138430000Y-82550000D03*
X135890000Y-80010000D03*
X135890000Y-82550000D03*
X133350000Y-80010000D03*
X133350000Y-82550000D03*
D14*
X181610000Y-86360000D03*
X178910000Y-86360000D03*
X133698000Y-35052000D03*
X136398000Y-35052000D03*
D15*
X132268000Y-65024000D03*
X132268000Y-66294000D03*
X132268000Y-67564000D03*
X132268000Y-68834000D03*
X132268000Y-70104000D03*
X132268000Y-71374000D03*
X132268000Y-72644000D03*
X132268000Y-73914000D03*
X137668000Y-73914000D03*
X137668000Y-72644000D03*
X137668000Y-71374000D03*
X137668000Y-70104000D03*
X137668000Y-68834000D03*
X137668000Y-67564000D03*
X137668000Y-66294000D03*
X137668000Y-65024000D03*
X132334000Y-37592000D03*
X132334000Y-38862000D03*
X132334000Y-40132000D03*
X132334000Y-41402000D03*
X132334000Y-42672000D03*
X132334000Y-43942000D03*
X132334000Y-45212000D03*
X132334000Y-46482000D03*
X137734000Y-46482000D03*
X137734000Y-45212000D03*
X137734000Y-43942000D03*
X137734000Y-42672000D03*
X137734000Y-41402000D03*
X137734000Y-40132000D03*
X137734000Y-38862000D03*
X137734000Y-37592000D03*
D16*
X161290000Y-87884000D03*
D17*
X133350000Y-95504000D03*
X158750000Y-87884000D03*
X135890000Y-95504000D03*
X156210000Y-87884000D03*
X138430000Y-95504000D03*
X153670000Y-87884000D03*
X140970000Y-95504000D03*
X151130000Y-87884000D03*
X143510000Y-95504000D03*
X148590000Y-87884000D03*
X146050000Y-95504000D03*
X146050000Y-87884000D03*
X148590000Y-95504000D03*
X143510000Y-87884000D03*
X151130000Y-95504000D03*
X140970000Y-87884000D03*
X153670000Y-95504000D03*
X138430000Y-87884000D03*
X156210000Y-95504000D03*
X135890000Y-87884000D03*
X158750000Y-95504000D03*
X133350000Y-87884000D03*
X161290000Y-95504000D03*
D15*
X132268000Y-50800000D03*
X132268000Y-52070000D03*
X132268000Y-53340000D03*
X132268000Y-54610000D03*
X132268000Y-55880000D03*
X132268000Y-57150000D03*
X132268000Y-58420000D03*
X132268000Y-59690000D03*
X137668000Y-59690000D03*
X137668000Y-58420000D03*
X137668000Y-57150000D03*
X137668000Y-55880000D03*
X137668000Y-54610000D03*
X137668000Y-53340000D03*
X137668000Y-52070000D03*
X137668000Y-50800000D03*
D16*
X181864000Y-36576000D03*
D17*
X143764000Y-51816000D03*
X179324000Y-36576000D03*
X146304000Y-51816000D03*
X176784000Y-36576000D03*
X148844000Y-51816000D03*
X174244000Y-36576000D03*
X151384000Y-51816000D03*
X171704000Y-36576000D03*
X153924000Y-51816000D03*
X169164000Y-36576000D03*
X156464000Y-51816000D03*
X166624000Y-36576000D03*
X159004000Y-51816000D03*
X164084000Y-36576000D03*
X161544000Y-51816000D03*
X161544000Y-36576000D03*
X164084000Y-51816000D03*
X159004000Y-36576000D03*
X166624000Y-51816000D03*
X156464000Y-36576000D03*
X169164000Y-51816000D03*
X153924000Y-36576000D03*
X171704000Y-51816000D03*
X151384000Y-36576000D03*
X174244000Y-51816000D03*
X148844000Y-36576000D03*
X176784000Y-51816000D03*
X146304000Y-36576000D03*
X179324000Y-51816000D03*
X143764000Y-36576000D03*
X181864000Y-51816000D03*
D16*
X181864000Y-58420000D03*
D17*
X143764000Y-73660000D03*
X179324000Y-58420000D03*
X146304000Y-73660000D03*
X176784000Y-58420000D03*
X148844000Y-73660000D03*
X174244000Y-58420000D03*
X151384000Y-73660000D03*
X171704000Y-58420000D03*
X153924000Y-73660000D03*
X169164000Y-58420000D03*
X156464000Y-73660000D03*
X166624000Y-58420000D03*
X159004000Y-73660000D03*
X164084000Y-58420000D03*
X161544000Y-73660000D03*
X161544000Y-58420000D03*
X164084000Y-73660000D03*
X159004000Y-58420000D03*
X166624000Y-73660000D03*
X156464000Y-58420000D03*
X169164000Y-73660000D03*
X153924000Y-58420000D03*
X171704000Y-73660000D03*
X151384000Y-58420000D03*
X174244000Y-73660000D03*
X148844000Y-58420000D03*
X176784000Y-73660000D03*
X146304000Y-58420000D03*
X179324000Y-73660000D03*
X143764000Y-58420000D03*
X181864000Y-73660000D03*
M02*
