G04 #@! TF.FileFunction,Copper,L2,Bot,Signal*
%FSLAX46Y46*%
G04 Gerber Fmt 4.6, Leading zero omitted, Abs format (unit mm)*
G04 Created by KiCad (PCBNEW 4.0.7-e2-6376~58~ubuntu16.04.1) date Thu Mar 10 23:02:34 2022*
%MOMM*%
%LPD*%
G01*
G04 APERTURE LIST*
%ADD10C,0.100000*%
%ADD11R,1.250000X1.500000*%
%ADD12R,1.700000X1.700000*%
%ADD13O,1.700000X1.700000*%
%ADD14R,1.600000X1.600000*%
%ADD15O,1.600000X1.600000*%
%ADD16C,0.600000*%
%ADD17C,0.400000*%
%ADD18C,0.250000*%
%ADD19C,0.254000*%
G04 APERTURE END LIST*
D10*
D11*
X140462000Y-37612000D03*
X140462000Y-40112000D03*
X181864000Y-70318000D03*
X181864000Y-67818000D03*
X181864000Y-49490000D03*
X181864000Y-46990000D03*
X140462000Y-50078000D03*
X140462000Y-52578000D03*
X141478000Y-65024000D03*
X141478000Y-67524000D03*
D12*
X181610000Y-80010000D03*
D13*
X181610000Y-82550000D03*
X179070000Y-80010000D03*
X179070000Y-82550000D03*
X176530000Y-80010000D03*
X176530000Y-82550000D03*
X173990000Y-80010000D03*
X173990000Y-82550000D03*
X171450000Y-80010000D03*
X171450000Y-82550000D03*
X168910000Y-80010000D03*
X168910000Y-82550000D03*
X166370000Y-80010000D03*
X166370000Y-82550000D03*
X163830000Y-80010000D03*
X163830000Y-82550000D03*
X161290000Y-80010000D03*
X161290000Y-82550000D03*
X158750000Y-80010000D03*
X158750000Y-82550000D03*
X156210000Y-80010000D03*
X156210000Y-82550000D03*
X153670000Y-80010000D03*
X153670000Y-82550000D03*
X151130000Y-80010000D03*
X151130000Y-82550000D03*
X148590000Y-80010000D03*
X148590000Y-82550000D03*
X146050000Y-80010000D03*
X146050000Y-82550000D03*
X143510000Y-80010000D03*
X143510000Y-82550000D03*
X140970000Y-80010000D03*
X140970000Y-82550000D03*
X138430000Y-80010000D03*
X138430000Y-82550000D03*
X135890000Y-80010000D03*
X135890000Y-82550000D03*
X133350000Y-80010000D03*
X133350000Y-82550000D03*
D14*
X161290000Y-87884000D03*
D15*
X133350000Y-95504000D03*
X158750000Y-87884000D03*
X135890000Y-95504000D03*
X156210000Y-87884000D03*
X138430000Y-95504000D03*
X153670000Y-87884000D03*
X140970000Y-95504000D03*
X151130000Y-87884000D03*
X143510000Y-95504000D03*
X148590000Y-87884000D03*
X146050000Y-95504000D03*
X146050000Y-87884000D03*
X148590000Y-95504000D03*
X143510000Y-87884000D03*
X151130000Y-95504000D03*
X140970000Y-87884000D03*
X153670000Y-95504000D03*
X138430000Y-87884000D03*
X156210000Y-95504000D03*
X135890000Y-87884000D03*
X158750000Y-95504000D03*
X133350000Y-87884000D03*
X161290000Y-95504000D03*
D14*
X181864000Y-36576000D03*
D15*
X143764000Y-51816000D03*
X179324000Y-36576000D03*
X146304000Y-51816000D03*
X176784000Y-36576000D03*
X148844000Y-51816000D03*
X174244000Y-36576000D03*
X151384000Y-51816000D03*
X171704000Y-36576000D03*
X153924000Y-51816000D03*
X169164000Y-36576000D03*
X156464000Y-51816000D03*
X166624000Y-36576000D03*
X159004000Y-51816000D03*
X164084000Y-36576000D03*
X161544000Y-51816000D03*
X161544000Y-36576000D03*
X164084000Y-51816000D03*
X159004000Y-36576000D03*
X166624000Y-51816000D03*
X156464000Y-36576000D03*
X169164000Y-51816000D03*
X153924000Y-36576000D03*
X171704000Y-51816000D03*
X151384000Y-36576000D03*
X174244000Y-51816000D03*
X148844000Y-36576000D03*
X176784000Y-51816000D03*
X146304000Y-36576000D03*
X179324000Y-51816000D03*
X143764000Y-36576000D03*
X181864000Y-51816000D03*
D14*
X181864000Y-58420000D03*
D15*
X143764000Y-73660000D03*
X179324000Y-58420000D03*
X146304000Y-73660000D03*
X176784000Y-58420000D03*
X148844000Y-73660000D03*
X174244000Y-58420000D03*
X151384000Y-73660000D03*
X171704000Y-58420000D03*
X153924000Y-73660000D03*
X169164000Y-58420000D03*
X156464000Y-73660000D03*
X166624000Y-58420000D03*
X159004000Y-73660000D03*
X164084000Y-58420000D03*
X161544000Y-73660000D03*
X161544000Y-58420000D03*
X164084000Y-73660000D03*
X159004000Y-58420000D03*
X166624000Y-73660000D03*
X156464000Y-58420000D03*
X169164000Y-73660000D03*
X153924000Y-58420000D03*
X171704000Y-73660000D03*
X151384000Y-58420000D03*
X174244000Y-73660000D03*
X148844000Y-58420000D03*
X176784000Y-73660000D03*
X146304000Y-58420000D03*
X179324000Y-73660000D03*
X143764000Y-58420000D03*
X181864000Y-73660000D03*
D16*
X149606000Y-68580000D03*
X140462000Y-37592000D03*
X140462000Y-50078000D03*
X141478000Y-65024000D03*
X165862000Y-91714000D03*
X144018000Y-46990000D03*
X143764000Y-67564000D03*
X131318000Y-73914000D03*
X131318000Y-67564000D03*
X138684000Y-68834000D03*
X131064000Y-59690000D03*
X131572000Y-46482000D03*
X144018000Y-40132000D03*
X151384000Y-42418000D03*
X133604000Y-41402000D03*
X171450000Y-60960000D03*
X146304000Y-42672000D03*
X138938000Y-42672000D03*
X166741010Y-62963506D03*
X163068000Y-76200000D03*
X139446000Y-55880000D03*
X162952739Y-77971362D03*
X153924000Y-64633010D03*
X134502990Y-63246000D03*
X156210000Y-64008000D03*
X135128000Y-62484000D03*
X158815732Y-69280010D03*
X139954000Y-69088000D03*
X161290000Y-70612000D03*
X140970000Y-70612000D03*
X164405343Y-67025981D03*
X151446145Y-67025981D03*
X149860000Y-78994000D03*
X166116000Y-65278000D03*
X156464000Y-65278000D03*
X159305377Y-69912676D03*
X169672000Y-69850000D03*
X149901450Y-81321450D03*
X130864611Y-66287478D03*
X167894000Y-66294000D03*
X138938000Y-54610000D03*
X161915010Y-78232000D03*
X163830000Y-93472000D03*
X163322000Y-77216000D03*
X140208000Y-41596979D03*
X154940000Y-42418000D03*
X164109513Y-75640974D03*
X148844000Y-43043010D03*
X169046990Y-61976000D03*
X133604000Y-42672000D03*
X173990000Y-93218000D03*
X175260000Y-85090000D03*
X181610000Y-94742000D03*
X145796000Y-77216000D03*
X133604000Y-77216000D03*
X139700000Y-46482000D03*
X129794000Y-48514000D03*
X138938000Y-59690000D03*
X129540000Y-61976000D03*
X139192000Y-71374000D03*
X139328990Y-70104000D03*
X157734000Y-69850000D03*
X134112000Y-38862000D03*
X179324000Y-44450000D03*
X133858000Y-44704000D03*
X181864000Y-45212000D03*
X139192000Y-45212000D03*
X140777990Y-56129372D03*
X139192000Y-51562000D03*
X171704000Y-49022000D03*
D17*
X149606000Y-68580000D02*
X177546000Y-68580000D01*
X177546000Y-68580000D02*
X179284000Y-70318000D01*
X179284000Y-70318000D02*
X181864000Y-70318000D01*
X181864000Y-51816000D02*
X181864000Y-49490000D01*
X181864000Y-73660000D02*
X181864000Y-70318000D01*
X140442000Y-37592000D02*
X140462000Y-37612000D01*
X146050000Y-80010000D02*
X148590000Y-80010000D01*
X143510000Y-80010000D02*
X146050000Y-80010000D01*
X140970000Y-80010000D02*
X138430000Y-80010000D01*
X138430000Y-80010000D02*
X135890000Y-80010000D01*
X144188264Y-67564000D02*
X143764000Y-67564000D01*
X150708543Y-67818000D02*
X150454543Y-67564000D01*
X181864000Y-67818000D02*
X150708543Y-67818000D01*
X150454543Y-67564000D02*
X144188264Y-67564000D01*
X134250630Y-89916000D02*
X165862000Y-89916000D01*
X165862000Y-89916000D02*
X166370000Y-89408000D01*
X133350000Y-87884000D02*
X133350000Y-89015370D01*
X133350000Y-89015370D02*
X134250630Y-89916000D01*
X181864000Y-46990000D02*
X144018000Y-46990000D01*
X143764000Y-67564000D02*
X141518000Y-67564000D01*
X141518000Y-67564000D02*
X141478000Y-67524000D01*
X131318000Y-67564000D02*
X131318000Y-73914000D01*
X135636000Y-67564000D02*
X131318000Y-67564000D01*
X136906000Y-68834000D02*
X135636000Y-67564000D01*
X138684000Y-68834000D02*
X136906000Y-68834000D01*
X141478000Y-67524000D02*
X139994000Y-67524000D01*
X139994000Y-67524000D02*
X138684000Y-68834000D01*
X134665999Y-59390001D02*
X135636000Y-58420000D01*
X135636000Y-58420000D02*
X143764000Y-58420000D01*
X131064000Y-59690000D02*
X131363999Y-59390001D01*
X131363999Y-59390001D02*
X134665999Y-59390001D01*
X130810000Y-54864000D02*
X130810000Y-59436000D01*
X130810000Y-59436000D02*
X131064000Y-59690000D01*
X132588000Y-53086000D02*
X130810000Y-54864000D01*
X138929000Y-53086000D02*
X132588000Y-53086000D01*
X140462000Y-52578000D02*
X139437000Y-52578000D01*
X139437000Y-52578000D02*
X138929000Y-53086000D01*
X132354000Y-40112000D02*
X131572000Y-40894000D01*
X131572000Y-40894000D02*
X131572000Y-46482000D01*
X140462000Y-40112000D02*
X132354000Y-40112000D01*
X140462000Y-40112000D02*
X143998000Y-40112000D01*
X143998000Y-40112000D02*
X144018000Y-40132000D01*
X133350000Y-80010000D02*
X135890000Y-80010000D01*
D18*
X183388000Y-87884000D02*
X183388000Y-80688000D01*
X183388000Y-80688000D02*
X182710000Y-80010000D01*
X182710000Y-80010000D02*
X181610000Y-80010000D01*
X161290000Y-87884000D02*
X183388000Y-87884000D01*
X151012998Y-42046998D02*
X151384000Y-42418000D01*
X146003998Y-42046998D02*
X151012998Y-42046998D01*
X145829007Y-42221989D02*
X146003998Y-42046998D01*
X139412991Y-42221989D02*
X145829007Y-42221989D01*
X138593002Y-41402000D02*
X139412991Y-42221989D01*
X133604000Y-41402000D02*
X138593002Y-41402000D01*
X152146000Y-60960000D02*
X151384000Y-60198000D01*
X151384000Y-60198000D02*
X151384000Y-58420000D01*
X171450000Y-60960000D02*
X152146000Y-60960000D01*
X138938000Y-42672000D02*
X146304000Y-42672000D01*
X149716136Y-62963506D02*
X166741010Y-62963506D01*
X146304000Y-58420000D02*
X146304000Y-59551370D01*
X146304000Y-59551370D02*
X149716136Y-62963506D01*
X152538630Y-75946000D02*
X162814000Y-75946000D01*
X162814000Y-75946000D02*
X163068000Y-76200000D01*
X151384000Y-73660000D02*
X151384000Y-74791370D01*
X151384000Y-74791370D02*
X152538630Y-75946000D01*
X139821629Y-55504371D02*
X139446000Y-55880000D01*
X146304000Y-51816000D02*
X142615629Y-55504371D01*
X142615629Y-55504371D02*
X139821629Y-55504371D01*
X162451377Y-77470000D02*
X162952739Y-77971362D01*
X150114000Y-77470000D02*
X162451377Y-77470000D01*
X146304000Y-73660000D02*
X150114000Y-77470000D01*
X156210000Y-87884000D02*
X157734000Y-86360000D01*
X157734000Y-86360000D02*
X171450000Y-86360000D01*
X171450000Y-86360000D02*
X172720000Y-85090000D01*
X172720000Y-85090000D02*
X172720000Y-78740000D01*
X172720000Y-78740000D02*
X174498000Y-76962000D01*
X174498000Y-76962000D02*
X177546000Y-76962000D01*
X177546000Y-76962000D02*
X179324000Y-75184000D01*
X179324000Y-75184000D02*
X179324000Y-73660000D01*
X174498000Y-75946000D02*
X176784000Y-73660000D01*
X170180000Y-84074000D02*
X170180000Y-77978000D01*
X155644011Y-85909989D02*
X168344011Y-85909989D01*
X170180000Y-77978000D02*
X172212000Y-75946000D01*
X153670000Y-87884000D02*
X155644011Y-85909989D01*
X172212000Y-75946000D02*
X174498000Y-75946000D01*
X168344011Y-85909989D02*
X170180000Y-84074000D01*
X147691010Y-64633010D02*
X153924000Y-64633010D01*
X146304000Y-63246000D02*
X147691010Y-64633010D01*
X134502990Y-63246000D02*
X146304000Y-63246000D01*
X148590000Y-64008000D02*
X156210000Y-64008000D01*
X147066000Y-62484000D02*
X148590000Y-64008000D01*
X135128000Y-62484000D02*
X147066000Y-62484000D01*
X140496372Y-69206108D02*
X158317566Y-69206108D01*
X139954000Y-69088000D02*
X140378264Y-69088000D01*
X158391468Y-69280010D02*
X158815732Y-69280010D01*
X140378264Y-69088000D02*
X140496372Y-69206108D01*
X158317566Y-69206108D02*
X158391468Y-69280010D01*
X140970000Y-70612000D02*
X161290000Y-70612000D01*
X151446145Y-67025981D02*
X164405343Y-67025981D01*
X144780000Y-81280000D02*
X149059002Y-81280000D01*
X149059002Y-81280000D02*
X149860000Y-80479002D01*
X149860000Y-80479002D02*
X149860000Y-78994000D01*
X143510000Y-82550000D02*
X144780000Y-81280000D01*
X167640000Y-77724000D02*
X171704000Y-73660000D01*
X166254022Y-85205978D02*
X167640000Y-83820000D01*
X167640000Y-83820000D02*
X167640000Y-77724000D01*
X146050000Y-87884000D02*
X148728022Y-85205978D01*
X148728022Y-85205978D02*
X166254022Y-85205978D01*
X156464000Y-65278000D02*
X166116000Y-65278000D01*
X169672000Y-69850000D02*
X159368053Y-69850000D01*
X159368053Y-69850000D02*
X159305377Y-69912676D01*
X157521450Y-81321450D02*
X149901450Y-81321450D01*
X158750000Y-82550000D02*
X157521450Y-81321450D01*
X169164000Y-73660000D02*
X165100000Y-77724000D01*
X165100000Y-77724000D02*
X165100000Y-83430162D01*
X165100000Y-83430162D02*
X164524081Y-84006081D01*
X164524081Y-84006081D02*
X159004000Y-84006081D01*
X159004000Y-84006081D02*
X158750000Y-83752081D01*
X158750000Y-83752081D02*
X158750000Y-82550000D01*
X167894000Y-66294000D02*
X130871133Y-66294000D01*
X130871133Y-66294000D02*
X130864611Y-66287478D01*
X161290000Y-82550000D02*
X162560000Y-81280000D01*
X162560000Y-81280000D02*
X162560000Y-79248000D01*
X162560000Y-79248000D02*
X166624000Y-75184000D01*
X166624000Y-75184000D02*
X166624000Y-73660000D01*
X142539999Y-54310001D02*
X143764000Y-53086000D01*
X143764000Y-53086000D02*
X143764000Y-51816000D01*
X138938000Y-54610000D02*
X139237999Y-54310001D01*
X139237999Y-54310001D02*
X142539999Y-54310001D01*
X143764000Y-73660000D02*
X148336000Y-78232000D01*
X148336000Y-78232000D02*
X161915010Y-78232000D01*
X141732000Y-93472000D02*
X140970000Y-94234000D01*
X140970000Y-94234000D02*
X140970000Y-95504000D01*
X163830000Y-93472000D02*
X141732000Y-93472000D01*
X148844000Y-73660000D02*
X148844000Y-74791370D01*
X148844000Y-74791370D02*
X151014630Y-76962000D01*
X151014630Y-76962000D02*
X163068000Y-76962000D01*
X163068000Y-76962000D02*
X163322000Y-77216000D01*
X154118979Y-41596979D02*
X140208000Y-41596979D01*
X154940000Y-42418000D02*
X154118979Y-41596979D01*
X163652539Y-75184000D02*
X164109513Y-75640974D01*
X153924000Y-73660000D02*
X155448000Y-75184000D01*
X155448000Y-75184000D02*
X163652539Y-75184000D01*
X134275009Y-43343009D02*
X148544001Y-43343009D01*
X148544001Y-43343009D02*
X148844000Y-43043010D01*
X133604000Y-42672000D02*
X134275009Y-43343009D01*
X152400000Y-61976000D02*
X169046990Y-61976000D01*
X148844000Y-58420000D02*
X152400000Y-61976000D01*
X138430000Y-95504000D02*
X138430000Y-94372630D01*
X138430000Y-94372630D02*
X140346630Y-92456000D01*
X140346630Y-92456000D02*
X164084000Y-92456000D01*
X164084000Y-92456000D02*
X164846000Y-93218000D01*
X164846000Y-93218000D02*
X173990000Y-93218000D01*
X175260000Y-85090000D02*
X175559999Y-84790001D01*
X175559999Y-84790001D02*
X179369999Y-84790001D01*
X179369999Y-84790001D02*
X180760001Y-83399999D01*
X180760001Y-83399999D02*
X181610000Y-82550000D01*
X162814000Y-93980000D02*
X160274000Y-93980000D01*
X160274000Y-93980000D02*
X158750000Y-95504000D01*
X163576000Y-94742000D02*
X162814000Y-93980000D01*
X181610000Y-94742000D02*
X163576000Y-94742000D01*
X133604000Y-77216000D02*
X145796000Y-77216000D01*
X138430000Y-48514000D02*
X139700000Y-47244000D01*
X139700000Y-47244000D02*
X139700000Y-46482000D01*
X129794000Y-48514000D02*
X138430000Y-48514000D01*
X136996998Y-59690000D02*
X138938000Y-59690000D01*
X129540000Y-61976000D02*
X134710998Y-61976000D01*
X134710998Y-61976000D02*
X136996998Y-59690000D01*
X156464000Y-73660000D02*
X156464000Y-72528630D01*
X156464000Y-72528630D02*
X155309370Y-71374000D01*
X155309370Y-71374000D02*
X139192000Y-71374000D01*
X156464000Y-72528630D02*
X157872630Y-71120000D01*
X157872630Y-71120000D02*
X160782000Y-71120000D01*
X160782000Y-71120000D02*
X161544000Y-71882000D01*
X161544000Y-71882000D02*
X161544000Y-73660000D01*
X139582990Y-69850000D02*
X139328990Y-70104000D01*
X157734000Y-69850000D02*
X139582990Y-69850000D01*
X156464000Y-51816000D02*
X158242000Y-50038000D01*
X158242000Y-50038000D02*
X160897370Y-50038000D01*
X160897370Y-50038000D02*
X161544000Y-50684630D01*
X161544000Y-50684630D02*
X161544000Y-51816000D01*
X176276000Y-38862000D02*
X176784000Y-38354000D01*
X176784000Y-38354000D02*
X176784000Y-36576000D01*
X134112000Y-38862000D02*
X176276000Y-38862000D01*
X134157999Y-44404001D02*
X179278001Y-44404001D01*
X179278001Y-44404001D02*
X179324000Y-44450000D01*
X133858000Y-44704000D02*
X134157999Y-44404001D01*
X139192000Y-45212000D02*
X181864000Y-45212000D01*
X171953372Y-56129372D02*
X140777990Y-56129372D01*
X174244000Y-58420000D02*
X171953372Y-56129372D01*
X143256000Y-49276000D02*
X171450000Y-49276000D01*
X139491999Y-51262001D02*
X141269999Y-51262001D01*
X139192000Y-51562000D02*
X139491999Y-51262001D01*
X141269999Y-51262001D02*
X143256000Y-49276000D01*
X171450000Y-49276000D02*
X171704000Y-49022000D01*
D19*
G36*
X142611611Y-35720866D02*
X142372086Y-36226959D01*
X142493371Y-36449000D01*
X143637000Y-36449000D01*
X143637000Y-36429000D01*
X143891000Y-36429000D01*
X143891000Y-36449000D01*
X143911000Y-36449000D01*
X143911000Y-36703000D01*
X143891000Y-36703000D01*
X143891000Y-37845915D01*
X144113039Y-37967904D01*
X144501423Y-37807041D01*
X144916389Y-37431134D01*
X145019014Y-37214297D01*
X145289302Y-37618811D01*
X145754849Y-37929880D01*
X146304000Y-38039113D01*
X146853151Y-37929880D01*
X147318698Y-37618811D01*
X147574000Y-37236725D01*
X147829302Y-37618811D01*
X148294849Y-37929880D01*
X148844000Y-38039113D01*
X149393151Y-37929880D01*
X149858698Y-37618811D01*
X150114000Y-37236725D01*
X150369302Y-37618811D01*
X150834849Y-37929880D01*
X151384000Y-38039113D01*
X151933151Y-37929880D01*
X152398698Y-37618811D01*
X152654000Y-37236725D01*
X152909302Y-37618811D01*
X153374849Y-37929880D01*
X153924000Y-38039113D01*
X154473151Y-37929880D01*
X154938698Y-37618811D01*
X155194000Y-37236725D01*
X155449302Y-37618811D01*
X155914849Y-37929880D01*
X156464000Y-38039113D01*
X157013151Y-37929880D01*
X157478698Y-37618811D01*
X157734000Y-37236725D01*
X157989302Y-37618811D01*
X158454849Y-37929880D01*
X159004000Y-38039113D01*
X159553151Y-37929880D01*
X160018698Y-37618811D01*
X160274000Y-37236725D01*
X160529302Y-37618811D01*
X160994849Y-37929880D01*
X161544000Y-38039113D01*
X162093151Y-37929880D01*
X162558698Y-37618811D01*
X162814000Y-37236725D01*
X163069302Y-37618811D01*
X163534849Y-37929880D01*
X164084000Y-38039113D01*
X164633151Y-37929880D01*
X165098698Y-37618811D01*
X165354000Y-37236725D01*
X165609302Y-37618811D01*
X166074849Y-37929880D01*
X166624000Y-38039113D01*
X167173151Y-37929880D01*
X167638698Y-37618811D01*
X167894000Y-37236725D01*
X168149302Y-37618811D01*
X168614849Y-37929880D01*
X169164000Y-38039113D01*
X169713151Y-37929880D01*
X170178698Y-37618811D01*
X170434000Y-37236725D01*
X170689302Y-37618811D01*
X171154849Y-37929880D01*
X171704000Y-38039113D01*
X172253151Y-37929880D01*
X172718698Y-37618811D01*
X172974000Y-37236725D01*
X173229302Y-37618811D01*
X173694849Y-37929880D01*
X174244000Y-38039113D01*
X174793151Y-37929880D01*
X175258698Y-37618811D01*
X175514000Y-37236725D01*
X175769302Y-37618811D01*
X176024000Y-37788995D01*
X176024000Y-38039198D01*
X175961198Y-38102000D01*
X141734440Y-38102000D01*
X141734440Y-36925041D01*
X142372086Y-36925041D01*
X142611611Y-37431134D01*
X143026577Y-37807041D01*
X143414961Y-37967904D01*
X143637000Y-37845915D01*
X143637000Y-36703000D01*
X142493371Y-36703000D01*
X142372086Y-36925041D01*
X141734440Y-36925041D01*
X141734440Y-36862000D01*
X141690162Y-36626683D01*
X141551090Y-36410559D01*
X141338890Y-36265569D01*
X141087000Y-36214560D01*
X139837000Y-36214560D01*
X139601683Y-36258838D01*
X139385559Y-36397910D01*
X139240569Y-36610110D01*
X139189560Y-36862000D01*
X139189560Y-38102000D01*
X134674463Y-38102000D01*
X134642327Y-38069808D01*
X134298799Y-37927162D01*
X133926833Y-37926838D01*
X133583057Y-38068883D01*
X133319808Y-38331673D01*
X133177162Y-38675201D01*
X133176838Y-39047167D01*
X133318883Y-39390943D01*
X133581673Y-39654192D01*
X133925201Y-39796838D01*
X134297167Y-39797162D01*
X134640943Y-39655117D01*
X134674118Y-39622000D01*
X139202000Y-39622000D01*
X139202000Y-39826250D01*
X139360750Y-39985000D01*
X140335000Y-39985000D01*
X140335000Y-39965000D01*
X140589000Y-39965000D01*
X140589000Y-39985000D01*
X141563250Y-39985000D01*
X141722000Y-39826250D01*
X141722000Y-39622000D01*
X176276000Y-39622000D01*
X176566839Y-39564148D01*
X176813401Y-39399401D01*
X177321401Y-38891401D01*
X177486147Y-38644840D01*
X177486148Y-38644839D01*
X177544000Y-38354000D01*
X177544000Y-37788995D01*
X177798698Y-37618811D01*
X178054000Y-37236725D01*
X178309302Y-37618811D01*
X178774849Y-37929880D01*
X179324000Y-38039113D01*
X179873151Y-37929880D01*
X180338698Y-37618811D01*
X180435101Y-37474535D01*
X180460838Y-37611317D01*
X180599910Y-37827441D01*
X180812110Y-37972431D01*
X181064000Y-38023440D01*
X182664000Y-38023440D01*
X182899317Y-37979162D01*
X183115441Y-37840090D01*
X183260431Y-37627890D01*
X183311440Y-37376000D01*
X183311440Y-35776000D01*
X183294693Y-35687000D01*
X185243000Y-35687000D01*
X185243000Y-96393000D01*
X162407471Y-96393000D01*
X162615767Y-96081264D01*
X162725000Y-95532113D01*
X162725000Y-95475887D01*
X162615767Y-94926736D01*
X162490994Y-94740000D01*
X162499198Y-94740000D01*
X163038599Y-95279401D01*
X163285161Y-95444148D01*
X163576000Y-95502000D01*
X181047537Y-95502000D01*
X181079673Y-95534192D01*
X181423201Y-95676838D01*
X181795167Y-95677162D01*
X182138943Y-95535117D01*
X182402192Y-95272327D01*
X182544838Y-94928799D01*
X182545162Y-94556833D01*
X182403117Y-94213057D01*
X182140327Y-93949808D01*
X181796799Y-93807162D01*
X181424833Y-93806838D01*
X181081057Y-93948883D01*
X181047882Y-93982000D01*
X174548111Y-93982000D01*
X174782192Y-93748327D01*
X174924838Y-93404799D01*
X174925162Y-93032833D01*
X174783117Y-92689057D01*
X174520327Y-92425808D01*
X174176799Y-92283162D01*
X173804833Y-92282838D01*
X173461057Y-92424883D01*
X173427882Y-92458000D01*
X165160802Y-92458000D01*
X164621401Y-91918599D01*
X164374839Y-91753852D01*
X164084000Y-91696000D01*
X140346630Y-91696000D01*
X140055791Y-91753852D01*
X139809229Y-91918599D01*
X137892599Y-93835229D01*
X137727852Y-94081791D01*
X137688725Y-94278493D01*
X137415302Y-94461189D01*
X137160000Y-94843275D01*
X136904698Y-94461189D01*
X136439151Y-94150120D01*
X135890000Y-94040887D01*
X135340849Y-94150120D01*
X134875302Y-94461189D01*
X134620000Y-94843275D01*
X134364698Y-94461189D01*
X133899151Y-94150120D01*
X133350000Y-94040887D01*
X132800849Y-94150120D01*
X132335302Y-94461189D01*
X132024233Y-94926736D01*
X131915000Y-95475887D01*
X131915000Y-95532113D01*
X132024233Y-96081264D01*
X132232529Y-96393000D01*
X129717000Y-96393000D01*
X129717000Y-88233041D01*
X131958086Y-88233041D01*
X132197611Y-88739134D01*
X132612577Y-89115041D01*
X133000961Y-89275904D01*
X133223000Y-89153915D01*
X133223000Y-88011000D01*
X132079371Y-88011000D01*
X131958086Y-88233041D01*
X129717000Y-88233041D01*
X129717000Y-87534959D01*
X131958086Y-87534959D01*
X132079371Y-87757000D01*
X133223000Y-87757000D01*
X133223000Y-86614085D01*
X133000961Y-86492096D01*
X132612577Y-86652959D01*
X132197611Y-87028866D01*
X131958086Y-87534959D01*
X129717000Y-87534959D01*
X129717000Y-79653108D01*
X131908514Y-79653108D01*
X132029181Y-79883000D01*
X133223000Y-79883000D01*
X133223000Y-78689845D01*
X133477000Y-78689845D01*
X133477000Y-79883000D01*
X135763000Y-79883000D01*
X135763000Y-78689845D01*
X136017000Y-78689845D01*
X136017000Y-79883000D01*
X138303000Y-79883000D01*
X138303000Y-78689845D01*
X138557000Y-78689845D01*
X138557000Y-79883000D01*
X140843000Y-79883000D01*
X140843000Y-78689845D01*
X140613110Y-78568524D01*
X140203076Y-78738355D01*
X139774817Y-79128642D01*
X139700000Y-79287954D01*
X139625183Y-79128642D01*
X139196924Y-78738355D01*
X138786890Y-78568524D01*
X138557000Y-78689845D01*
X138303000Y-78689845D01*
X138073110Y-78568524D01*
X137663076Y-78738355D01*
X137234817Y-79128642D01*
X137160000Y-79287954D01*
X137085183Y-79128642D01*
X136656924Y-78738355D01*
X136246890Y-78568524D01*
X136017000Y-78689845D01*
X135763000Y-78689845D01*
X135533110Y-78568524D01*
X135123076Y-78738355D01*
X134694817Y-79128642D01*
X134620000Y-79287954D01*
X134545183Y-79128642D01*
X134116924Y-78738355D01*
X133706890Y-78568524D01*
X133477000Y-78689845D01*
X133223000Y-78689845D01*
X132993110Y-78568524D01*
X132583076Y-78738355D01*
X132154817Y-79128642D01*
X131908514Y-79653108D01*
X129717000Y-79653108D01*
X129717000Y-62911155D01*
X129725167Y-62911162D01*
X130068943Y-62769117D01*
X130102118Y-62736000D01*
X133702357Y-62736000D01*
X133568152Y-63059201D01*
X133567828Y-63431167D01*
X133709873Y-63774943D01*
X133972663Y-64038192D01*
X134316191Y-64180838D01*
X134688157Y-64181162D01*
X135031933Y-64039117D01*
X135065108Y-64006000D01*
X140267576Y-64006000D01*
X140256569Y-64022110D01*
X140205560Y-64274000D01*
X140205560Y-65534000D01*
X131433584Y-65534000D01*
X131394938Y-65495286D01*
X131051410Y-65352640D01*
X130679444Y-65352316D01*
X130335668Y-65494361D01*
X130072419Y-65757151D01*
X129929773Y-66100679D01*
X129929449Y-66472645D01*
X130071494Y-66816421D01*
X130334284Y-67079670D01*
X130677812Y-67222316D01*
X131049778Y-67222640D01*
X131393554Y-67080595D01*
X131420195Y-67054000D01*
X140218000Y-67054000D01*
X140218000Y-67238250D01*
X140376750Y-67397000D01*
X141351000Y-67397000D01*
X141351000Y-67377000D01*
X141605000Y-67377000D01*
X141605000Y-67397000D01*
X142579250Y-67397000D01*
X142738000Y-67238250D01*
X142738000Y-67054000D01*
X150511120Y-67054000D01*
X150510983Y-67211148D01*
X150653028Y-67554924D01*
X150842773Y-67745000D01*
X150033234Y-67745000D01*
X149792799Y-67645162D01*
X149420833Y-67644838D01*
X149077057Y-67786883D01*
X148813808Y-68049673D01*
X148671162Y-68393201D01*
X148671116Y-68446108D01*
X142719029Y-68446108D01*
X142738000Y-68400309D01*
X142738000Y-67809750D01*
X142579250Y-67651000D01*
X141605000Y-67651000D01*
X141605000Y-67671000D01*
X141351000Y-67671000D01*
X141351000Y-67651000D01*
X140376750Y-67651000D01*
X140218000Y-67809750D01*
X140218000Y-68185219D01*
X140140799Y-68153162D01*
X139768833Y-68152838D01*
X139425057Y-68294883D01*
X139161808Y-68557673D01*
X139019162Y-68901201D01*
X139018884Y-69220462D01*
X138800047Y-69310883D01*
X138536798Y-69573673D01*
X138394152Y-69917201D01*
X138393828Y-70289167D01*
X138535873Y-70632943D01*
X138573324Y-70670459D01*
X138399808Y-70843673D01*
X138257162Y-71187201D01*
X138256838Y-71559167D01*
X138398883Y-71902943D01*
X138661673Y-72166192D01*
X139005201Y-72308838D01*
X139377167Y-72309162D01*
X139720943Y-72167117D01*
X139754118Y-72134000D01*
X154994568Y-72134000D01*
X155466360Y-72605792D01*
X155449302Y-72617189D01*
X155194000Y-72999275D01*
X154938698Y-72617189D01*
X154473151Y-72306120D01*
X153924000Y-72196887D01*
X153374849Y-72306120D01*
X152909302Y-72617189D01*
X152654000Y-72999275D01*
X152398698Y-72617189D01*
X151933151Y-72306120D01*
X151384000Y-72196887D01*
X150834849Y-72306120D01*
X150369302Y-72617189D01*
X150114000Y-72999275D01*
X149858698Y-72617189D01*
X149393151Y-72306120D01*
X148844000Y-72196887D01*
X148294849Y-72306120D01*
X147829302Y-72617189D01*
X147574000Y-72999275D01*
X147318698Y-72617189D01*
X146853151Y-72306120D01*
X146304000Y-72196887D01*
X145754849Y-72306120D01*
X145289302Y-72617189D01*
X145034000Y-72999275D01*
X144778698Y-72617189D01*
X144313151Y-72306120D01*
X143764000Y-72196887D01*
X143214849Y-72306120D01*
X142749302Y-72617189D01*
X142438233Y-73082736D01*
X142329000Y-73631887D01*
X142329000Y-73688113D01*
X142438233Y-74237264D01*
X142749302Y-74702811D01*
X143214849Y-75013880D01*
X143764000Y-75123113D01*
X144087886Y-75058688D01*
X145397983Y-76368785D01*
X145267057Y-76422883D01*
X145233882Y-76456000D01*
X134166463Y-76456000D01*
X134134327Y-76423808D01*
X133790799Y-76281162D01*
X133418833Y-76280838D01*
X133075057Y-76422883D01*
X132811808Y-76685673D01*
X132669162Y-77029201D01*
X132668838Y-77401167D01*
X132810883Y-77744943D01*
X133073673Y-78008192D01*
X133417201Y-78150838D01*
X133789167Y-78151162D01*
X134132943Y-78009117D01*
X134166118Y-77976000D01*
X145233537Y-77976000D01*
X145265673Y-78008192D01*
X145609201Y-78150838D01*
X145981167Y-78151162D01*
X146324943Y-78009117D01*
X146588192Y-77746327D01*
X146643156Y-77613958D01*
X147791781Y-78762583D01*
X147539946Y-78930853D01*
X147376813Y-79175000D01*
X147263187Y-79175000D01*
X147100054Y-78930853D01*
X146618285Y-78608946D01*
X146050000Y-78495907D01*
X145481715Y-78608946D01*
X144999946Y-78930853D01*
X144836813Y-79175000D01*
X144723187Y-79175000D01*
X144560054Y-78930853D01*
X144078285Y-78608946D01*
X143510000Y-78495907D01*
X142941715Y-78608946D01*
X142459946Y-78930853D01*
X142232298Y-79271553D01*
X142165183Y-79128642D01*
X141736924Y-78738355D01*
X141326890Y-78568524D01*
X141097000Y-78689845D01*
X141097000Y-79883000D01*
X141117000Y-79883000D01*
X141117000Y-80137000D01*
X141097000Y-80137000D01*
X141097000Y-80157000D01*
X140843000Y-80157000D01*
X140843000Y-80137000D01*
X138557000Y-80137000D01*
X138557000Y-80157000D01*
X138303000Y-80157000D01*
X138303000Y-80137000D01*
X136017000Y-80137000D01*
X136017000Y-80157000D01*
X135763000Y-80157000D01*
X135763000Y-80137000D01*
X133477000Y-80137000D01*
X133477000Y-80157000D01*
X133223000Y-80157000D01*
X133223000Y-80137000D01*
X132029181Y-80137000D01*
X131908514Y-80366892D01*
X132154817Y-80891358D01*
X132583076Y-81281645D01*
X132583101Y-81281655D01*
X132299946Y-81470853D01*
X131978039Y-81952622D01*
X131865000Y-82520907D01*
X131865000Y-82579093D01*
X131978039Y-83147378D01*
X132299946Y-83629147D01*
X132781715Y-83951054D01*
X133350000Y-84064093D01*
X133918285Y-83951054D01*
X134400054Y-83629147D01*
X134620000Y-83299974D01*
X134839946Y-83629147D01*
X135321715Y-83951054D01*
X135890000Y-84064093D01*
X136458285Y-83951054D01*
X136940054Y-83629147D01*
X137160000Y-83299974D01*
X137379946Y-83629147D01*
X137861715Y-83951054D01*
X138430000Y-84064093D01*
X138998285Y-83951054D01*
X139480054Y-83629147D01*
X139700000Y-83299974D01*
X139919946Y-83629147D01*
X140401715Y-83951054D01*
X140970000Y-84064093D01*
X141538285Y-83951054D01*
X142020054Y-83629147D01*
X142240000Y-83299974D01*
X142459946Y-83629147D01*
X142941715Y-83951054D01*
X143510000Y-84064093D01*
X144078285Y-83951054D01*
X144560054Y-83629147D01*
X144780000Y-83299974D01*
X144999946Y-83629147D01*
X145481715Y-83951054D01*
X146050000Y-84064093D01*
X146618285Y-83951054D01*
X147100054Y-83629147D01*
X147320000Y-83299974D01*
X147539946Y-83629147D01*
X148021715Y-83951054D01*
X148590000Y-84064093D01*
X149158285Y-83951054D01*
X149640054Y-83629147D01*
X149860000Y-83299974D01*
X150079946Y-83629147D01*
X150561715Y-83951054D01*
X151130000Y-84064093D01*
X151698285Y-83951054D01*
X152180054Y-83629147D01*
X152400000Y-83299974D01*
X152619946Y-83629147D01*
X153101715Y-83951054D01*
X153670000Y-84064093D01*
X154238285Y-83951054D01*
X154720054Y-83629147D01*
X154940000Y-83299974D01*
X155159946Y-83629147D01*
X155641715Y-83951054D01*
X156210000Y-84064093D01*
X156778285Y-83951054D01*
X157260054Y-83629147D01*
X157480000Y-83299974D01*
X157699946Y-83629147D01*
X158006259Y-83833818D01*
X158047852Y-84042920D01*
X158212599Y-84289482D01*
X158369095Y-84445978D01*
X148728022Y-84445978D01*
X148437183Y-84503830D01*
X148190621Y-84668577D01*
X146373886Y-86485312D01*
X146050000Y-86420887D01*
X145500849Y-86530120D01*
X145035302Y-86841189D01*
X144780000Y-87223275D01*
X144524698Y-86841189D01*
X144059151Y-86530120D01*
X143510000Y-86420887D01*
X142960849Y-86530120D01*
X142495302Y-86841189D01*
X142240000Y-87223275D01*
X141984698Y-86841189D01*
X141519151Y-86530120D01*
X140970000Y-86420887D01*
X140420849Y-86530120D01*
X139955302Y-86841189D01*
X139700000Y-87223275D01*
X139444698Y-86841189D01*
X138979151Y-86530120D01*
X138430000Y-86420887D01*
X137880849Y-86530120D01*
X137415302Y-86841189D01*
X137160000Y-87223275D01*
X136904698Y-86841189D01*
X136439151Y-86530120D01*
X135890000Y-86420887D01*
X135340849Y-86530120D01*
X134875302Y-86841189D01*
X134605014Y-87245703D01*
X134502389Y-87028866D01*
X134087423Y-86652959D01*
X133699039Y-86492096D01*
X133477000Y-86614085D01*
X133477000Y-87757000D01*
X133497000Y-87757000D01*
X133497000Y-88011000D01*
X133477000Y-88011000D01*
X133477000Y-89153915D01*
X133699039Y-89275904D01*
X134087423Y-89115041D01*
X134502389Y-88739134D01*
X134605014Y-88522297D01*
X134875302Y-88926811D01*
X135340849Y-89237880D01*
X135890000Y-89347113D01*
X136439151Y-89237880D01*
X136904698Y-88926811D01*
X137160000Y-88544725D01*
X137415302Y-88926811D01*
X137880849Y-89237880D01*
X138430000Y-89347113D01*
X138979151Y-89237880D01*
X139444698Y-88926811D01*
X139700000Y-88544725D01*
X139955302Y-88926811D01*
X140420849Y-89237880D01*
X140970000Y-89347113D01*
X141519151Y-89237880D01*
X141984698Y-88926811D01*
X142240000Y-88544725D01*
X142495302Y-88926811D01*
X142960849Y-89237880D01*
X143510000Y-89347113D01*
X144059151Y-89237880D01*
X144524698Y-88926811D01*
X144780000Y-88544725D01*
X145035302Y-88926811D01*
X145500849Y-89237880D01*
X146050000Y-89347113D01*
X146599151Y-89237880D01*
X147064698Y-88926811D01*
X147320000Y-88544725D01*
X147575302Y-88926811D01*
X148040849Y-89237880D01*
X148590000Y-89347113D01*
X149139151Y-89237880D01*
X149604698Y-88926811D01*
X149860000Y-88544725D01*
X150115302Y-88926811D01*
X150580849Y-89237880D01*
X151130000Y-89347113D01*
X151679151Y-89237880D01*
X152144698Y-88926811D01*
X152400000Y-88544725D01*
X152655302Y-88926811D01*
X153120849Y-89237880D01*
X153670000Y-89347113D01*
X154219151Y-89237880D01*
X154684698Y-88926811D01*
X154940000Y-88544725D01*
X155195302Y-88926811D01*
X155660849Y-89237880D01*
X156210000Y-89347113D01*
X156759151Y-89237880D01*
X157224698Y-88926811D01*
X157480000Y-88544725D01*
X157735302Y-88926811D01*
X158200849Y-89237880D01*
X158750000Y-89347113D01*
X159299151Y-89237880D01*
X159764698Y-88926811D01*
X159861101Y-88782535D01*
X159886838Y-88919317D01*
X160025910Y-89135441D01*
X160238110Y-89280431D01*
X160490000Y-89331440D01*
X162090000Y-89331440D01*
X162325317Y-89287162D01*
X162541441Y-89148090D01*
X162686431Y-88935890D01*
X162737440Y-88684000D01*
X162737440Y-88644000D01*
X183388000Y-88644000D01*
X183678839Y-88586148D01*
X183925401Y-88421401D01*
X184090148Y-88174839D01*
X184148000Y-87884000D01*
X184148000Y-80688000D01*
X184090148Y-80397161D01*
X183925401Y-80150599D01*
X183247401Y-79472599D01*
X183107440Y-79379080D01*
X183107440Y-79160000D01*
X183063162Y-78924683D01*
X182924090Y-78708559D01*
X182711890Y-78563569D01*
X182460000Y-78512560D01*
X180760000Y-78512560D01*
X180524683Y-78556838D01*
X180308559Y-78695910D01*
X180163569Y-78908110D01*
X180149914Y-78975541D01*
X180120054Y-78930853D01*
X179638285Y-78608946D01*
X179070000Y-78495907D01*
X178501715Y-78608946D01*
X178019946Y-78930853D01*
X177800000Y-79260026D01*
X177580054Y-78930853D01*
X177098285Y-78608946D01*
X176530000Y-78495907D01*
X175961715Y-78608946D01*
X175479946Y-78930853D01*
X175260000Y-79260026D01*
X175040054Y-78930853D01*
X174558285Y-78608946D01*
X174030783Y-78504019D01*
X174812802Y-77722000D01*
X177546000Y-77722000D01*
X177836839Y-77664148D01*
X178083401Y-77499401D01*
X179861401Y-75721401D01*
X180026148Y-75474839D01*
X180084000Y-75184000D01*
X180084000Y-74872995D01*
X180338698Y-74702811D01*
X180594000Y-74320725D01*
X180849302Y-74702811D01*
X181314849Y-75013880D01*
X181864000Y-75123113D01*
X182413151Y-75013880D01*
X182878698Y-74702811D01*
X183189767Y-74237264D01*
X183299000Y-73688113D01*
X183299000Y-73631887D01*
X183189767Y-73082736D01*
X182878698Y-72617189D01*
X182699000Y-72497118D01*
X182699000Y-71675926D01*
X182724317Y-71671162D01*
X182940441Y-71532090D01*
X183085431Y-71319890D01*
X183136440Y-71068000D01*
X183136440Y-69568000D01*
X183092162Y-69332683D01*
X182953090Y-69116559D01*
X182884994Y-69070031D01*
X183027327Y-68927698D01*
X183124000Y-68694309D01*
X183124000Y-68103750D01*
X182965250Y-67945000D01*
X181991000Y-67945000D01*
X181991000Y-67965000D01*
X181737000Y-67965000D01*
X181737000Y-67945000D01*
X180762750Y-67945000D01*
X180604000Y-68103750D01*
X180604000Y-68694309D01*
X180700673Y-68927698D01*
X180841910Y-69068936D01*
X180787559Y-69103910D01*
X180642569Y-69316110D01*
X180608773Y-69483000D01*
X179629868Y-69483000D01*
X178136434Y-67989566D01*
X178069736Y-67945000D01*
X177865541Y-67808561D01*
X177546000Y-67745000D01*
X165008513Y-67745000D01*
X165197535Y-67556308D01*
X165340181Y-67212780D01*
X165340319Y-67054000D01*
X167331537Y-67054000D01*
X167363673Y-67086192D01*
X167707201Y-67228838D01*
X168079167Y-67229162D01*
X168422943Y-67087117D01*
X168568623Y-66941691D01*
X180604000Y-66941691D01*
X180604000Y-67532250D01*
X180762750Y-67691000D01*
X181737000Y-67691000D01*
X181737000Y-66591750D01*
X181991000Y-66591750D01*
X181991000Y-67691000D01*
X182965250Y-67691000D01*
X183124000Y-67532250D01*
X183124000Y-66941691D01*
X183027327Y-66708302D01*
X182848699Y-66529673D01*
X182615310Y-66433000D01*
X182149750Y-66433000D01*
X181991000Y-66591750D01*
X181737000Y-66591750D01*
X181578250Y-66433000D01*
X181112690Y-66433000D01*
X180879301Y-66529673D01*
X180700673Y-66708302D01*
X180604000Y-66941691D01*
X168568623Y-66941691D01*
X168686192Y-66824327D01*
X168828838Y-66480799D01*
X168829162Y-66108833D01*
X168687117Y-65765057D01*
X168424327Y-65501808D01*
X168080799Y-65359162D01*
X167708833Y-65358838D01*
X167365057Y-65500883D01*
X167331882Y-65534000D01*
X167022103Y-65534000D01*
X167050838Y-65464799D01*
X167051162Y-65092833D01*
X166909117Y-64749057D01*
X166646327Y-64485808D01*
X166302799Y-64343162D01*
X165930833Y-64342838D01*
X165587057Y-64484883D01*
X165553882Y-64518000D01*
X157026463Y-64518000D01*
X157015283Y-64506801D01*
X157144838Y-64194799D01*
X157145162Y-63822833D01*
X157104121Y-63723506D01*
X166178547Y-63723506D01*
X166210683Y-63755698D01*
X166554211Y-63898344D01*
X166926177Y-63898668D01*
X167269953Y-63756623D01*
X167533202Y-63493833D01*
X167675848Y-63150305D01*
X167676172Y-62778339D01*
X167658678Y-62736000D01*
X168484527Y-62736000D01*
X168516663Y-62768192D01*
X168860191Y-62910838D01*
X169232157Y-62911162D01*
X169575933Y-62769117D01*
X169839182Y-62506327D01*
X169981828Y-62162799D01*
X169982152Y-61790833D01*
X169952884Y-61720000D01*
X170887537Y-61720000D01*
X170919673Y-61752192D01*
X171263201Y-61894838D01*
X171635167Y-61895162D01*
X171978943Y-61753117D01*
X172242192Y-61490327D01*
X172384838Y-61146799D01*
X172385162Y-60774833D01*
X172243117Y-60431057D01*
X171980327Y-60167808D01*
X171636799Y-60025162D01*
X171264833Y-60024838D01*
X170921057Y-60166883D01*
X170887882Y-60200000D01*
X152460802Y-60200000D01*
X152144000Y-59883198D01*
X152144000Y-59632995D01*
X152398698Y-59462811D01*
X152654000Y-59080725D01*
X152909302Y-59462811D01*
X153374849Y-59773880D01*
X153924000Y-59883113D01*
X154473151Y-59773880D01*
X154938698Y-59462811D01*
X155194000Y-59080725D01*
X155449302Y-59462811D01*
X155914849Y-59773880D01*
X156464000Y-59883113D01*
X157013151Y-59773880D01*
X157478698Y-59462811D01*
X157734000Y-59080725D01*
X157989302Y-59462811D01*
X158454849Y-59773880D01*
X159004000Y-59883113D01*
X159553151Y-59773880D01*
X160018698Y-59462811D01*
X160274000Y-59080725D01*
X160529302Y-59462811D01*
X160994849Y-59773880D01*
X161544000Y-59883113D01*
X162093151Y-59773880D01*
X162558698Y-59462811D01*
X162814000Y-59080725D01*
X163069302Y-59462811D01*
X163534849Y-59773880D01*
X164084000Y-59883113D01*
X164633151Y-59773880D01*
X165098698Y-59462811D01*
X165354000Y-59080725D01*
X165609302Y-59462811D01*
X166074849Y-59773880D01*
X166624000Y-59883113D01*
X167173151Y-59773880D01*
X167638698Y-59462811D01*
X167894000Y-59080725D01*
X168149302Y-59462811D01*
X168614849Y-59773880D01*
X169164000Y-59883113D01*
X169713151Y-59773880D01*
X170178698Y-59462811D01*
X170434000Y-59080725D01*
X170689302Y-59462811D01*
X171154849Y-59773880D01*
X171704000Y-59883113D01*
X172253151Y-59773880D01*
X172718698Y-59462811D01*
X172974000Y-59080725D01*
X173229302Y-59462811D01*
X173694849Y-59773880D01*
X174244000Y-59883113D01*
X174793151Y-59773880D01*
X175258698Y-59462811D01*
X175514000Y-59080725D01*
X175769302Y-59462811D01*
X176234849Y-59773880D01*
X176784000Y-59883113D01*
X177333151Y-59773880D01*
X177798698Y-59462811D01*
X178054000Y-59080725D01*
X178309302Y-59462811D01*
X178774849Y-59773880D01*
X179324000Y-59883113D01*
X179873151Y-59773880D01*
X180338698Y-59462811D01*
X180435101Y-59318535D01*
X180460838Y-59455317D01*
X180599910Y-59671441D01*
X180812110Y-59816431D01*
X181064000Y-59867440D01*
X182664000Y-59867440D01*
X182899317Y-59823162D01*
X183115441Y-59684090D01*
X183260431Y-59471890D01*
X183311440Y-59220000D01*
X183311440Y-57620000D01*
X183267162Y-57384683D01*
X183128090Y-57168559D01*
X182915890Y-57023569D01*
X182664000Y-56972560D01*
X181064000Y-56972560D01*
X180828683Y-57016838D01*
X180612559Y-57155910D01*
X180467569Y-57368110D01*
X180436185Y-57523089D01*
X180338698Y-57377189D01*
X179873151Y-57066120D01*
X179324000Y-56956887D01*
X178774849Y-57066120D01*
X178309302Y-57377189D01*
X178054000Y-57759275D01*
X177798698Y-57377189D01*
X177333151Y-57066120D01*
X176784000Y-56956887D01*
X176234849Y-57066120D01*
X175769302Y-57377189D01*
X175514000Y-57759275D01*
X175258698Y-57377189D01*
X174793151Y-57066120D01*
X174244000Y-56956887D01*
X173920114Y-57021312D01*
X172490773Y-55591971D01*
X172244211Y-55427224D01*
X171953372Y-55369372D01*
X143825430Y-55369372D01*
X145980114Y-53214688D01*
X146304000Y-53279113D01*
X146853151Y-53169880D01*
X147318698Y-52858811D01*
X147574000Y-52476725D01*
X147829302Y-52858811D01*
X148294849Y-53169880D01*
X148844000Y-53279113D01*
X149393151Y-53169880D01*
X149858698Y-52858811D01*
X150114000Y-52476725D01*
X150369302Y-52858811D01*
X150834849Y-53169880D01*
X151384000Y-53279113D01*
X151933151Y-53169880D01*
X152398698Y-52858811D01*
X152654000Y-52476725D01*
X152909302Y-52858811D01*
X153374849Y-53169880D01*
X153924000Y-53279113D01*
X154473151Y-53169880D01*
X154938698Y-52858811D01*
X155194000Y-52476725D01*
X155449302Y-52858811D01*
X155914849Y-53169880D01*
X156464000Y-53279113D01*
X157013151Y-53169880D01*
X157478698Y-52858811D01*
X157734000Y-52476725D01*
X157989302Y-52858811D01*
X158454849Y-53169880D01*
X159004000Y-53279113D01*
X159553151Y-53169880D01*
X160018698Y-52858811D01*
X160274000Y-52476725D01*
X160529302Y-52858811D01*
X160994849Y-53169880D01*
X161544000Y-53279113D01*
X162093151Y-53169880D01*
X162558698Y-52858811D01*
X162814000Y-52476725D01*
X163069302Y-52858811D01*
X163534849Y-53169880D01*
X164084000Y-53279113D01*
X164633151Y-53169880D01*
X165098698Y-52858811D01*
X165354000Y-52476725D01*
X165609302Y-52858811D01*
X166074849Y-53169880D01*
X166624000Y-53279113D01*
X167173151Y-53169880D01*
X167638698Y-52858811D01*
X167894000Y-52476725D01*
X168149302Y-52858811D01*
X168614849Y-53169880D01*
X169164000Y-53279113D01*
X169713151Y-53169880D01*
X170178698Y-52858811D01*
X170434000Y-52476725D01*
X170689302Y-52858811D01*
X171154849Y-53169880D01*
X171704000Y-53279113D01*
X172253151Y-53169880D01*
X172718698Y-52858811D01*
X172974000Y-52476725D01*
X173229302Y-52858811D01*
X173694849Y-53169880D01*
X174244000Y-53279113D01*
X174793151Y-53169880D01*
X175258698Y-52858811D01*
X175514000Y-52476725D01*
X175769302Y-52858811D01*
X176234849Y-53169880D01*
X176784000Y-53279113D01*
X177333151Y-53169880D01*
X177798698Y-52858811D01*
X178054000Y-52476725D01*
X178309302Y-52858811D01*
X178774849Y-53169880D01*
X179324000Y-53279113D01*
X179873151Y-53169880D01*
X180338698Y-52858811D01*
X180594000Y-52476725D01*
X180849302Y-52858811D01*
X181314849Y-53169880D01*
X181864000Y-53279113D01*
X182413151Y-53169880D01*
X182878698Y-52858811D01*
X183189767Y-52393264D01*
X183299000Y-51844113D01*
X183299000Y-51787887D01*
X183189767Y-51238736D01*
X182878698Y-50773189D01*
X182856308Y-50758228D01*
X182940441Y-50704090D01*
X183085431Y-50491890D01*
X183136440Y-50240000D01*
X183136440Y-48740000D01*
X183092162Y-48504683D01*
X182953090Y-48288559D01*
X182884994Y-48242031D01*
X183027327Y-48099698D01*
X183124000Y-47866309D01*
X183124000Y-47275750D01*
X182965250Y-47117000D01*
X181991000Y-47117000D01*
X181991000Y-47137000D01*
X181737000Y-47137000D01*
X181737000Y-47117000D01*
X180762750Y-47117000D01*
X180604000Y-47275750D01*
X180604000Y-47866309D01*
X180700673Y-48099698D01*
X180841910Y-48240936D01*
X180787559Y-48275910D01*
X180642569Y-48488110D01*
X180591560Y-48740000D01*
X180591560Y-50240000D01*
X180635838Y-50475317D01*
X180774910Y-50691441D01*
X180872180Y-50757903D01*
X180849302Y-50773189D01*
X180594000Y-51155275D01*
X180338698Y-50773189D01*
X179873151Y-50462120D01*
X179324000Y-50352887D01*
X178774849Y-50462120D01*
X178309302Y-50773189D01*
X178054000Y-51155275D01*
X177798698Y-50773189D01*
X177333151Y-50462120D01*
X176784000Y-50352887D01*
X176234849Y-50462120D01*
X175769302Y-50773189D01*
X175514000Y-51155275D01*
X175258698Y-50773189D01*
X174793151Y-50462120D01*
X174244000Y-50352887D01*
X173694849Y-50462120D01*
X173229302Y-50773189D01*
X172974000Y-51155275D01*
X172718698Y-50773189D01*
X172253151Y-50462120D01*
X171704000Y-50352887D01*
X171154849Y-50462120D01*
X170689302Y-50773189D01*
X170434000Y-51155275D01*
X170178698Y-50773189D01*
X169713151Y-50462120D01*
X169164000Y-50352887D01*
X168614849Y-50462120D01*
X168149302Y-50773189D01*
X167894000Y-51155275D01*
X167638698Y-50773189D01*
X167173151Y-50462120D01*
X166624000Y-50352887D01*
X166074849Y-50462120D01*
X165609302Y-50773189D01*
X165354000Y-51155275D01*
X165098698Y-50773189D01*
X164633151Y-50462120D01*
X164084000Y-50352887D01*
X163534849Y-50462120D01*
X163069302Y-50773189D01*
X162814000Y-51155275D01*
X162558698Y-50773189D01*
X162285275Y-50590493D01*
X162246148Y-50393791D01*
X162081401Y-50147229D01*
X161970172Y-50036000D01*
X171450000Y-50036000D01*
X171740839Y-49978148D01*
X171772399Y-49957060D01*
X171889167Y-49957162D01*
X172232943Y-49815117D01*
X172496192Y-49552327D01*
X172638838Y-49208799D01*
X172639162Y-48836833D01*
X172497117Y-48493057D01*
X172234327Y-48229808D01*
X171890799Y-48087162D01*
X171518833Y-48086838D01*
X171175057Y-48228883D01*
X170911808Y-48491673D01*
X170901706Y-48516000D01*
X143256000Y-48516000D01*
X142965161Y-48573852D01*
X142718599Y-48738599D01*
X141734440Y-49722758D01*
X141734440Y-49328000D01*
X141690162Y-49092683D01*
X141551090Y-48876559D01*
X141338890Y-48731569D01*
X141087000Y-48680560D01*
X139837000Y-48680560D01*
X139601683Y-48724838D01*
X139385559Y-48863910D01*
X139240569Y-49076110D01*
X139189560Y-49328000D01*
X139189560Y-50567604D01*
X139100787Y-50626920D01*
X139006833Y-50626838D01*
X138663057Y-50768883D01*
X138399808Y-51031673D01*
X138257162Y-51375201D01*
X138256838Y-51747167D01*
X138398883Y-52090943D01*
X138661673Y-52354192D01*
X139005201Y-52496838D01*
X139377167Y-52497162D01*
X139488888Y-52451000D01*
X140335000Y-52451000D01*
X140335000Y-52431000D01*
X140589000Y-52431000D01*
X140589000Y-52451000D01*
X141563250Y-52451000D01*
X141722000Y-52292250D01*
X141722000Y-51856464D01*
X141807400Y-51799402D01*
X142579527Y-51027275D01*
X142438233Y-51238736D01*
X142329000Y-51787887D01*
X142329000Y-51844113D01*
X142438233Y-52393264D01*
X142749302Y-52858811D01*
X142849462Y-52925736D01*
X142225197Y-53550001D01*
X141682363Y-53550001D01*
X141722000Y-53454309D01*
X141722000Y-52863750D01*
X141563250Y-52705000D01*
X140589000Y-52705000D01*
X140589000Y-52725000D01*
X140335000Y-52725000D01*
X140335000Y-52705000D01*
X139360750Y-52705000D01*
X139202000Y-52863750D01*
X139202000Y-53454309D01*
X139241637Y-53550001D01*
X139237999Y-53550001D01*
X138947160Y-53607853D01*
X138846787Y-53674920D01*
X138752833Y-53674838D01*
X138409057Y-53816883D01*
X138145808Y-54079673D01*
X138003162Y-54423201D01*
X138002838Y-54795167D01*
X138144883Y-55138943D01*
X138407673Y-55402192D01*
X138599009Y-55481642D01*
X138511162Y-55693201D01*
X138510838Y-56065167D01*
X138652883Y-56408943D01*
X138915673Y-56672192D01*
X139259201Y-56814838D01*
X139631167Y-56815162D01*
X139974943Y-56673117D01*
X139987318Y-56660764D01*
X140247663Y-56921564D01*
X140591191Y-57064210D01*
X140963157Y-57064534D01*
X141306933Y-56922489D01*
X141340108Y-56889372D01*
X171638570Y-56889372D01*
X171706603Y-56957405D01*
X171704000Y-56956887D01*
X171154849Y-57066120D01*
X170689302Y-57377189D01*
X170434000Y-57759275D01*
X170178698Y-57377189D01*
X169713151Y-57066120D01*
X169164000Y-56956887D01*
X168614849Y-57066120D01*
X168149302Y-57377189D01*
X167894000Y-57759275D01*
X167638698Y-57377189D01*
X167173151Y-57066120D01*
X166624000Y-56956887D01*
X166074849Y-57066120D01*
X165609302Y-57377189D01*
X165354000Y-57759275D01*
X165098698Y-57377189D01*
X164633151Y-57066120D01*
X164084000Y-56956887D01*
X163534849Y-57066120D01*
X163069302Y-57377189D01*
X162814000Y-57759275D01*
X162558698Y-57377189D01*
X162093151Y-57066120D01*
X161544000Y-56956887D01*
X160994849Y-57066120D01*
X160529302Y-57377189D01*
X160274000Y-57759275D01*
X160018698Y-57377189D01*
X159553151Y-57066120D01*
X159004000Y-56956887D01*
X158454849Y-57066120D01*
X157989302Y-57377189D01*
X157734000Y-57759275D01*
X157478698Y-57377189D01*
X157013151Y-57066120D01*
X156464000Y-56956887D01*
X155914849Y-57066120D01*
X155449302Y-57377189D01*
X155194000Y-57759275D01*
X154938698Y-57377189D01*
X154473151Y-57066120D01*
X153924000Y-56956887D01*
X153374849Y-57066120D01*
X152909302Y-57377189D01*
X152654000Y-57759275D01*
X152398698Y-57377189D01*
X151933151Y-57066120D01*
X151384000Y-56956887D01*
X150834849Y-57066120D01*
X150369302Y-57377189D01*
X150114000Y-57759275D01*
X149858698Y-57377189D01*
X149393151Y-57066120D01*
X148844000Y-56956887D01*
X148294849Y-57066120D01*
X147829302Y-57377189D01*
X147574000Y-57759275D01*
X147318698Y-57377189D01*
X146853151Y-57066120D01*
X146304000Y-56956887D01*
X145754849Y-57066120D01*
X145289302Y-57377189D01*
X145019014Y-57781703D01*
X144916389Y-57564866D01*
X144501423Y-57188959D01*
X144113039Y-57028096D01*
X143891000Y-57150085D01*
X143891000Y-58293000D01*
X143911000Y-58293000D01*
X143911000Y-58547000D01*
X143891000Y-58547000D01*
X143891000Y-59689915D01*
X144113039Y-59811904D01*
X144501423Y-59651041D01*
X144916389Y-59275134D01*
X145019014Y-59058297D01*
X145289302Y-59462811D01*
X145562725Y-59645507D01*
X145601852Y-59842209D01*
X145766599Y-60088771D01*
X148925828Y-63248000D01*
X148904802Y-63248000D01*
X147603401Y-61946599D01*
X147356839Y-61781852D01*
X147066000Y-61724000D01*
X136037800Y-61724000D01*
X137311800Y-60450000D01*
X138375537Y-60450000D01*
X138407673Y-60482192D01*
X138751201Y-60624838D01*
X139123167Y-60625162D01*
X139466943Y-60483117D01*
X139730192Y-60220327D01*
X139872838Y-59876799D01*
X139873162Y-59504833D01*
X139731117Y-59161057D01*
X139468327Y-58897808D01*
X139158224Y-58769041D01*
X142372086Y-58769041D01*
X142611611Y-59275134D01*
X143026577Y-59651041D01*
X143414961Y-59811904D01*
X143637000Y-59689915D01*
X143637000Y-58547000D01*
X142493371Y-58547000D01*
X142372086Y-58769041D01*
X139158224Y-58769041D01*
X139124799Y-58755162D01*
X138752833Y-58754838D01*
X138409057Y-58896883D01*
X138375882Y-58930000D01*
X136996998Y-58930000D01*
X136706158Y-58987852D01*
X136459597Y-59152599D01*
X134396196Y-61216000D01*
X130102463Y-61216000D01*
X130070327Y-61183808D01*
X129726799Y-61041162D01*
X129717000Y-61041153D01*
X129717000Y-58070959D01*
X142372086Y-58070959D01*
X142493371Y-58293000D01*
X143637000Y-58293000D01*
X143637000Y-57150085D01*
X143414961Y-57028096D01*
X143026577Y-57188959D01*
X142611611Y-57564866D01*
X142372086Y-58070959D01*
X129717000Y-58070959D01*
X129717000Y-49448934D01*
X129979167Y-49449162D01*
X130322943Y-49307117D01*
X130356118Y-49274000D01*
X138430000Y-49274000D01*
X138720839Y-49216148D01*
X138967401Y-49051401D01*
X140237401Y-47781401D01*
X140402148Y-47534840D01*
X140460000Y-47244000D01*
X140460000Y-47044463D01*
X140492192Y-47012327D01*
X140634838Y-46668799D01*
X140635162Y-46296833D01*
X140500944Y-45972000D01*
X180662690Y-45972000D01*
X180604000Y-46113691D01*
X180604000Y-46704250D01*
X180762750Y-46863000D01*
X181737000Y-46863000D01*
X181737000Y-46843000D01*
X181991000Y-46843000D01*
X181991000Y-46863000D01*
X182965250Y-46863000D01*
X183124000Y-46704250D01*
X183124000Y-46113691D01*
X183027327Y-45880302D01*
X182848699Y-45701673D01*
X182698847Y-45639602D01*
X182798838Y-45398799D01*
X182799162Y-45026833D01*
X182657117Y-44683057D01*
X182394327Y-44419808D01*
X182050799Y-44277162D01*
X181678833Y-44276838D01*
X181335057Y-44418883D01*
X181301882Y-44452000D01*
X180258999Y-44452000D01*
X180259162Y-44264833D01*
X180117117Y-43921057D01*
X179854327Y-43657808D01*
X179510799Y-43515162D01*
X179138833Y-43514838D01*
X178826234Y-43644001D01*
X149565405Y-43644001D01*
X149636192Y-43573337D01*
X149778838Y-43229809D01*
X149779162Y-42857843D01*
X149758153Y-42806998D01*
X150533059Y-42806998D01*
X150590883Y-42946943D01*
X150853673Y-43210192D01*
X151197201Y-43352838D01*
X151569167Y-43353162D01*
X151912943Y-43211117D01*
X152176192Y-42948327D01*
X152318838Y-42604799D01*
X152319054Y-42356979D01*
X153804177Y-42356979D01*
X154004878Y-42557680D01*
X154004838Y-42603167D01*
X154146883Y-42946943D01*
X154409673Y-43210192D01*
X154753201Y-43352838D01*
X155125167Y-43353162D01*
X155468943Y-43211117D01*
X155732192Y-42948327D01*
X155874838Y-42604799D01*
X155875162Y-42232833D01*
X155733117Y-41889057D01*
X155470327Y-41625808D01*
X155126799Y-41483162D01*
X155079923Y-41483121D01*
X154656380Y-41059578D01*
X154409818Y-40894831D01*
X154118979Y-40836979D01*
X141722000Y-40836979D01*
X141722000Y-40397750D01*
X141563250Y-40239000D01*
X140589000Y-40239000D01*
X140589000Y-40259000D01*
X140335000Y-40259000D01*
X140335000Y-40239000D01*
X139360750Y-40239000D01*
X139202000Y-40397750D01*
X139202000Y-40936196D01*
X139130403Y-40864599D01*
X138883841Y-40699852D01*
X138593002Y-40642000D01*
X134166463Y-40642000D01*
X134134327Y-40609808D01*
X133790799Y-40467162D01*
X133418833Y-40466838D01*
X133075057Y-40608883D01*
X132811808Y-40871673D01*
X132669162Y-41215201D01*
X132668838Y-41587167D01*
X132810883Y-41930943D01*
X132916710Y-42036954D01*
X132811808Y-42141673D01*
X132669162Y-42485201D01*
X132668838Y-42857167D01*
X132810883Y-43200943D01*
X133073673Y-43464192D01*
X133417201Y-43606838D01*
X133464077Y-43606879D01*
X133639719Y-43782521D01*
X133329057Y-43910883D01*
X133065808Y-44173673D01*
X132923162Y-44517201D01*
X132922838Y-44889167D01*
X133064883Y-45232943D01*
X133327673Y-45496192D01*
X133671201Y-45638838D01*
X134043167Y-45639162D01*
X134386943Y-45497117D01*
X134650192Y-45234327D01*
X134679394Y-45164001D01*
X138257041Y-45164001D01*
X138256838Y-45397167D01*
X138398883Y-45740943D01*
X138661673Y-46004192D01*
X138853009Y-46083642D01*
X138765162Y-46295201D01*
X138764838Y-46667167D01*
X138892665Y-46976533D01*
X138115198Y-47754000D01*
X130356463Y-47754000D01*
X130324327Y-47721808D01*
X129980799Y-47579162D01*
X129717000Y-47578932D01*
X129717000Y-35687000D01*
X142648996Y-35687000D01*
X142611611Y-35720866D01*
X142611611Y-35720866D01*
G37*
X142611611Y-35720866D02*
X142372086Y-36226959D01*
X142493371Y-36449000D01*
X143637000Y-36449000D01*
X143637000Y-36429000D01*
X143891000Y-36429000D01*
X143891000Y-36449000D01*
X143911000Y-36449000D01*
X143911000Y-36703000D01*
X143891000Y-36703000D01*
X143891000Y-37845915D01*
X144113039Y-37967904D01*
X144501423Y-37807041D01*
X144916389Y-37431134D01*
X145019014Y-37214297D01*
X145289302Y-37618811D01*
X145754849Y-37929880D01*
X146304000Y-38039113D01*
X146853151Y-37929880D01*
X147318698Y-37618811D01*
X147574000Y-37236725D01*
X147829302Y-37618811D01*
X148294849Y-37929880D01*
X148844000Y-38039113D01*
X149393151Y-37929880D01*
X149858698Y-37618811D01*
X150114000Y-37236725D01*
X150369302Y-37618811D01*
X150834849Y-37929880D01*
X151384000Y-38039113D01*
X151933151Y-37929880D01*
X152398698Y-37618811D01*
X152654000Y-37236725D01*
X152909302Y-37618811D01*
X153374849Y-37929880D01*
X153924000Y-38039113D01*
X154473151Y-37929880D01*
X154938698Y-37618811D01*
X155194000Y-37236725D01*
X155449302Y-37618811D01*
X155914849Y-37929880D01*
X156464000Y-38039113D01*
X157013151Y-37929880D01*
X157478698Y-37618811D01*
X157734000Y-37236725D01*
X157989302Y-37618811D01*
X158454849Y-37929880D01*
X159004000Y-38039113D01*
X159553151Y-37929880D01*
X160018698Y-37618811D01*
X160274000Y-37236725D01*
X160529302Y-37618811D01*
X160994849Y-37929880D01*
X161544000Y-38039113D01*
X162093151Y-37929880D01*
X162558698Y-37618811D01*
X162814000Y-37236725D01*
X163069302Y-37618811D01*
X163534849Y-37929880D01*
X164084000Y-38039113D01*
X164633151Y-37929880D01*
X165098698Y-37618811D01*
X165354000Y-37236725D01*
X165609302Y-37618811D01*
X166074849Y-37929880D01*
X166624000Y-38039113D01*
X167173151Y-37929880D01*
X167638698Y-37618811D01*
X167894000Y-37236725D01*
X168149302Y-37618811D01*
X168614849Y-37929880D01*
X169164000Y-38039113D01*
X169713151Y-37929880D01*
X170178698Y-37618811D01*
X170434000Y-37236725D01*
X170689302Y-37618811D01*
X171154849Y-37929880D01*
X171704000Y-38039113D01*
X172253151Y-37929880D01*
X172718698Y-37618811D01*
X172974000Y-37236725D01*
X173229302Y-37618811D01*
X173694849Y-37929880D01*
X174244000Y-38039113D01*
X174793151Y-37929880D01*
X175258698Y-37618811D01*
X175514000Y-37236725D01*
X175769302Y-37618811D01*
X176024000Y-37788995D01*
X176024000Y-38039198D01*
X175961198Y-38102000D01*
X141734440Y-38102000D01*
X141734440Y-36925041D01*
X142372086Y-36925041D01*
X142611611Y-37431134D01*
X143026577Y-37807041D01*
X143414961Y-37967904D01*
X143637000Y-37845915D01*
X143637000Y-36703000D01*
X142493371Y-36703000D01*
X142372086Y-36925041D01*
X141734440Y-36925041D01*
X141734440Y-36862000D01*
X141690162Y-36626683D01*
X141551090Y-36410559D01*
X141338890Y-36265569D01*
X141087000Y-36214560D01*
X139837000Y-36214560D01*
X139601683Y-36258838D01*
X139385559Y-36397910D01*
X139240569Y-36610110D01*
X139189560Y-36862000D01*
X139189560Y-38102000D01*
X134674463Y-38102000D01*
X134642327Y-38069808D01*
X134298799Y-37927162D01*
X133926833Y-37926838D01*
X133583057Y-38068883D01*
X133319808Y-38331673D01*
X133177162Y-38675201D01*
X133176838Y-39047167D01*
X133318883Y-39390943D01*
X133581673Y-39654192D01*
X133925201Y-39796838D01*
X134297167Y-39797162D01*
X134640943Y-39655117D01*
X134674118Y-39622000D01*
X139202000Y-39622000D01*
X139202000Y-39826250D01*
X139360750Y-39985000D01*
X140335000Y-39985000D01*
X140335000Y-39965000D01*
X140589000Y-39965000D01*
X140589000Y-39985000D01*
X141563250Y-39985000D01*
X141722000Y-39826250D01*
X141722000Y-39622000D01*
X176276000Y-39622000D01*
X176566839Y-39564148D01*
X176813401Y-39399401D01*
X177321401Y-38891401D01*
X177486147Y-38644840D01*
X177486148Y-38644839D01*
X177544000Y-38354000D01*
X177544000Y-37788995D01*
X177798698Y-37618811D01*
X178054000Y-37236725D01*
X178309302Y-37618811D01*
X178774849Y-37929880D01*
X179324000Y-38039113D01*
X179873151Y-37929880D01*
X180338698Y-37618811D01*
X180435101Y-37474535D01*
X180460838Y-37611317D01*
X180599910Y-37827441D01*
X180812110Y-37972431D01*
X181064000Y-38023440D01*
X182664000Y-38023440D01*
X182899317Y-37979162D01*
X183115441Y-37840090D01*
X183260431Y-37627890D01*
X183311440Y-37376000D01*
X183311440Y-35776000D01*
X183294693Y-35687000D01*
X185243000Y-35687000D01*
X185243000Y-96393000D01*
X162407471Y-96393000D01*
X162615767Y-96081264D01*
X162725000Y-95532113D01*
X162725000Y-95475887D01*
X162615767Y-94926736D01*
X162490994Y-94740000D01*
X162499198Y-94740000D01*
X163038599Y-95279401D01*
X163285161Y-95444148D01*
X163576000Y-95502000D01*
X181047537Y-95502000D01*
X181079673Y-95534192D01*
X181423201Y-95676838D01*
X181795167Y-95677162D01*
X182138943Y-95535117D01*
X182402192Y-95272327D01*
X182544838Y-94928799D01*
X182545162Y-94556833D01*
X182403117Y-94213057D01*
X182140327Y-93949808D01*
X181796799Y-93807162D01*
X181424833Y-93806838D01*
X181081057Y-93948883D01*
X181047882Y-93982000D01*
X174548111Y-93982000D01*
X174782192Y-93748327D01*
X174924838Y-93404799D01*
X174925162Y-93032833D01*
X174783117Y-92689057D01*
X174520327Y-92425808D01*
X174176799Y-92283162D01*
X173804833Y-92282838D01*
X173461057Y-92424883D01*
X173427882Y-92458000D01*
X165160802Y-92458000D01*
X164621401Y-91918599D01*
X164374839Y-91753852D01*
X164084000Y-91696000D01*
X140346630Y-91696000D01*
X140055791Y-91753852D01*
X139809229Y-91918599D01*
X137892599Y-93835229D01*
X137727852Y-94081791D01*
X137688725Y-94278493D01*
X137415302Y-94461189D01*
X137160000Y-94843275D01*
X136904698Y-94461189D01*
X136439151Y-94150120D01*
X135890000Y-94040887D01*
X135340849Y-94150120D01*
X134875302Y-94461189D01*
X134620000Y-94843275D01*
X134364698Y-94461189D01*
X133899151Y-94150120D01*
X133350000Y-94040887D01*
X132800849Y-94150120D01*
X132335302Y-94461189D01*
X132024233Y-94926736D01*
X131915000Y-95475887D01*
X131915000Y-95532113D01*
X132024233Y-96081264D01*
X132232529Y-96393000D01*
X129717000Y-96393000D01*
X129717000Y-88233041D01*
X131958086Y-88233041D01*
X132197611Y-88739134D01*
X132612577Y-89115041D01*
X133000961Y-89275904D01*
X133223000Y-89153915D01*
X133223000Y-88011000D01*
X132079371Y-88011000D01*
X131958086Y-88233041D01*
X129717000Y-88233041D01*
X129717000Y-87534959D01*
X131958086Y-87534959D01*
X132079371Y-87757000D01*
X133223000Y-87757000D01*
X133223000Y-86614085D01*
X133000961Y-86492096D01*
X132612577Y-86652959D01*
X132197611Y-87028866D01*
X131958086Y-87534959D01*
X129717000Y-87534959D01*
X129717000Y-79653108D01*
X131908514Y-79653108D01*
X132029181Y-79883000D01*
X133223000Y-79883000D01*
X133223000Y-78689845D01*
X133477000Y-78689845D01*
X133477000Y-79883000D01*
X135763000Y-79883000D01*
X135763000Y-78689845D01*
X136017000Y-78689845D01*
X136017000Y-79883000D01*
X138303000Y-79883000D01*
X138303000Y-78689845D01*
X138557000Y-78689845D01*
X138557000Y-79883000D01*
X140843000Y-79883000D01*
X140843000Y-78689845D01*
X140613110Y-78568524D01*
X140203076Y-78738355D01*
X139774817Y-79128642D01*
X139700000Y-79287954D01*
X139625183Y-79128642D01*
X139196924Y-78738355D01*
X138786890Y-78568524D01*
X138557000Y-78689845D01*
X138303000Y-78689845D01*
X138073110Y-78568524D01*
X137663076Y-78738355D01*
X137234817Y-79128642D01*
X137160000Y-79287954D01*
X137085183Y-79128642D01*
X136656924Y-78738355D01*
X136246890Y-78568524D01*
X136017000Y-78689845D01*
X135763000Y-78689845D01*
X135533110Y-78568524D01*
X135123076Y-78738355D01*
X134694817Y-79128642D01*
X134620000Y-79287954D01*
X134545183Y-79128642D01*
X134116924Y-78738355D01*
X133706890Y-78568524D01*
X133477000Y-78689845D01*
X133223000Y-78689845D01*
X132993110Y-78568524D01*
X132583076Y-78738355D01*
X132154817Y-79128642D01*
X131908514Y-79653108D01*
X129717000Y-79653108D01*
X129717000Y-62911155D01*
X129725167Y-62911162D01*
X130068943Y-62769117D01*
X130102118Y-62736000D01*
X133702357Y-62736000D01*
X133568152Y-63059201D01*
X133567828Y-63431167D01*
X133709873Y-63774943D01*
X133972663Y-64038192D01*
X134316191Y-64180838D01*
X134688157Y-64181162D01*
X135031933Y-64039117D01*
X135065108Y-64006000D01*
X140267576Y-64006000D01*
X140256569Y-64022110D01*
X140205560Y-64274000D01*
X140205560Y-65534000D01*
X131433584Y-65534000D01*
X131394938Y-65495286D01*
X131051410Y-65352640D01*
X130679444Y-65352316D01*
X130335668Y-65494361D01*
X130072419Y-65757151D01*
X129929773Y-66100679D01*
X129929449Y-66472645D01*
X130071494Y-66816421D01*
X130334284Y-67079670D01*
X130677812Y-67222316D01*
X131049778Y-67222640D01*
X131393554Y-67080595D01*
X131420195Y-67054000D01*
X140218000Y-67054000D01*
X140218000Y-67238250D01*
X140376750Y-67397000D01*
X141351000Y-67397000D01*
X141351000Y-67377000D01*
X141605000Y-67377000D01*
X141605000Y-67397000D01*
X142579250Y-67397000D01*
X142738000Y-67238250D01*
X142738000Y-67054000D01*
X150511120Y-67054000D01*
X150510983Y-67211148D01*
X150653028Y-67554924D01*
X150842773Y-67745000D01*
X150033234Y-67745000D01*
X149792799Y-67645162D01*
X149420833Y-67644838D01*
X149077057Y-67786883D01*
X148813808Y-68049673D01*
X148671162Y-68393201D01*
X148671116Y-68446108D01*
X142719029Y-68446108D01*
X142738000Y-68400309D01*
X142738000Y-67809750D01*
X142579250Y-67651000D01*
X141605000Y-67651000D01*
X141605000Y-67671000D01*
X141351000Y-67671000D01*
X141351000Y-67651000D01*
X140376750Y-67651000D01*
X140218000Y-67809750D01*
X140218000Y-68185219D01*
X140140799Y-68153162D01*
X139768833Y-68152838D01*
X139425057Y-68294883D01*
X139161808Y-68557673D01*
X139019162Y-68901201D01*
X139018884Y-69220462D01*
X138800047Y-69310883D01*
X138536798Y-69573673D01*
X138394152Y-69917201D01*
X138393828Y-70289167D01*
X138535873Y-70632943D01*
X138573324Y-70670459D01*
X138399808Y-70843673D01*
X138257162Y-71187201D01*
X138256838Y-71559167D01*
X138398883Y-71902943D01*
X138661673Y-72166192D01*
X139005201Y-72308838D01*
X139377167Y-72309162D01*
X139720943Y-72167117D01*
X139754118Y-72134000D01*
X154994568Y-72134000D01*
X155466360Y-72605792D01*
X155449302Y-72617189D01*
X155194000Y-72999275D01*
X154938698Y-72617189D01*
X154473151Y-72306120D01*
X153924000Y-72196887D01*
X153374849Y-72306120D01*
X152909302Y-72617189D01*
X152654000Y-72999275D01*
X152398698Y-72617189D01*
X151933151Y-72306120D01*
X151384000Y-72196887D01*
X150834849Y-72306120D01*
X150369302Y-72617189D01*
X150114000Y-72999275D01*
X149858698Y-72617189D01*
X149393151Y-72306120D01*
X148844000Y-72196887D01*
X148294849Y-72306120D01*
X147829302Y-72617189D01*
X147574000Y-72999275D01*
X147318698Y-72617189D01*
X146853151Y-72306120D01*
X146304000Y-72196887D01*
X145754849Y-72306120D01*
X145289302Y-72617189D01*
X145034000Y-72999275D01*
X144778698Y-72617189D01*
X144313151Y-72306120D01*
X143764000Y-72196887D01*
X143214849Y-72306120D01*
X142749302Y-72617189D01*
X142438233Y-73082736D01*
X142329000Y-73631887D01*
X142329000Y-73688113D01*
X142438233Y-74237264D01*
X142749302Y-74702811D01*
X143214849Y-75013880D01*
X143764000Y-75123113D01*
X144087886Y-75058688D01*
X145397983Y-76368785D01*
X145267057Y-76422883D01*
X145233882Y-76456000D01*
X134166463Y-76456000D01*
X134134327Y-76423808D01*
X133790799Y-76281162D01*
X133418833Y-76280838D01*
X133075057Y-76422883D01*
X132811808Y-76685673D01*
X132669162Y-77029201D01*
X132668838Y-77401167D01*
X132810883Y-77744943D01*
X133073673Y-78008192D01*
X133417201Y-78150838D01*
X133789167Y-78151162D01*
X134132943Y-78009117D01*
X134166118Y-77976000D01*
X145233537Y-77976000D01*
X145265673Y-78008192D01*
X145609201Y-78150838D01*
X145981167Y-78151162D01*
X146324943Y-78009117D01*
X146588192Y-77746327D01*
X146643156Y-77613958D01*
X147791781Y-78762583D01*
X147539946Y-78930853D01*
X147376813Y-79175000D01*
X147263187Y-79175000D01*
X147100054Y-78930853D01*
X146618285Y-78608946D01*
X146050000Y-78495907D01*
X145481715Y-78608946D01*
X144999946Y-78930853D01*
X144836813Y-79175000D01*
X144723187Y-79175000D01*
X144560054Y-78930853D01*
X144078285Y-78608946D01*
X143510000Y-78495907D01*
X142941715Y-78608946D01*
X142459946Y-78930853D01*
X142232298Y-79271553D01*
X142165183Y-79128642D01*
X141736924Y-78738355D01*
X141326890Y-78568524D01*
X141097000Y-78689845D01*
X141097000Y-79883000D01*
X141117000Y-79883000D01*
X141117000Y-80137000D01*
X141097000Y-80137000D01*
X141097000Y-80157000D01*
X140843000Y-80157000D01*
X140843000Y-80137000D01*
X138557000Y-80137000D01*
X138557000Y-80157000D01*
X138303000Y-80157000D01*
X138303000Y-80137000D01*
X136017000Y-80137000D01*
X136017000Y-80157000D01*
X135763000Y-80157000D01*
X135763000Y-80137000D01*
X133477000Y-80137000D01*
X133477000Y-80157000D01*
X133223000Y-80157000D01*
X133223000Y-80137000D01*
X132029181Y-80137000D01*
X131908514Y-80366892D01*
X132154817Y-80891358D01*
X132583076Y-81281645D01*
X132583101Y-81281655D01*
X132299946Y-81470853D01*
X131978039Y-81952622D01*
X131865000Y-82520907D01*
X131865000Y-82579093D01*
X131978039Y-83147378D01*
X132299946Y-83629147D01*
X132781715Y-83951054D01*
X133350000Y-84064093D01*
X133918285Y-83951054D01*
X134400054Y-83629147D01*
X134620000Y-83299974D01*
X134839946Y-83629147D01*
X135321715Y-83951054D01*
X135890000Y-84064093D01*
X136458285Y-83951054D01*
X136940054Y-83629147D01*
X137160000Y-83299974D01*
X137379946Y-83629147D01*
X137861715Y-83951054D01*
X138430000Y-84064093D01*
X138998285Y-83951054D01*
X139480054Y-83629147D01*
X139700000Y-83299974D01*
X139919946Y-83629147D01*
X140401715Y-83951054D01*
X140970000Y-84064093D01*
X141538285Y-83951054D01*
X142020054Y-83629147D01*
X142240000Y-83299974D01*
X142459946Y-83629147D01*
X142941715Y-83951054D01*
X143510000Y-84064093D01*
X144078285Y-83951054D01*
X144560054Y-83629147D01*
X144780000Y-83299974D01*
X144999946Y-83629147D01*
X145481715Y-83951054D01*
X146050000Y-84064093D01*
X146618285Y-83951054D01*
X147100054Y-83629147D01*
X147320000Y-83299974D01*
X147539946Y-83629147D01*
X148021715Y-83951054D01*
X148590000Y-84064093D01*
X149158285Y-83951054D01*
X149640054Y-83629147D01*
X149860000Y-83299974D01*
X150079946Y-83629147D01*
X150561715Y-83951054D01*
X151130000Y-84064093D01*
X151698285Y-83951054D01*
X152180054Y-83629147D01*
X152400000Y-83299974D01*
X152619946Y-83629147D01*
X153101715Y-83951054D01*
X153670000Y-84064093D01*
X154238285Y-83951054D01*
X154720054Y-83629147D01*
X154940000Y-83299974D01*
X155159946Y-83629147D01*
X155641715Y-83951054D01*
X156210000Y-84064093D01*
X156778285Y-83951054D01*
X157260054Y-83629147D01*
X157480000Y-83299974D01*
X157699946Y-83629147D01*
X158006259Y-83833818D01*
X158047852Y-84042920D01*
X158212599Y-84289482D01*
X158369095Y-84445978D01*
X148728022Y-84445978D01*
X148437183Y-84503830D01*
X148190621Y-84668577D01*
X146373886Y-86485312D01*
X146050000Y-86420887D01*
X145500849Y-86530120D01*
X145035302Y-86841189D01*
X144780000Y-87223275D01*
X144524698Y-86841189D01*
X144059151Y-86530120D01*
X143510000Y-86420887D01*
X142960849Y-86530120D01*
X142495302Y-86841189D01*
X142240000Y-87223275D01*
X141984698Y-86841189D01*
X141519151Y-86530120D01*
X140970000Y-86420887D01*
X140420849Y-86530120D01*
X139955302Y-86841189D01*
X139700000Y-87223275D01*
X139444698Y-86841189D01*
X138979151Y-86530120D01*
X138430000Y-86420887D01*
X137880849Y-86530120D01*
X137415302Y-86841189D01*
X137160000Y-87223275D01*
X136904698Y-86841189D01*
X136439151Y-86530120D01*
X135890000Y-86420887D01*
X135340849Y-86530120D01*
X134875302Y-86841189D01*
X134605014Y-87245703D01*
X134502389Y-87028866D01*
X134087423Y-86652959D01*
X133699039Y-86492096D01*
X133477000Y-86614085D01*
X133477000Y-87757000D01*
X133497000Y-87757000D01*
X133497000Y-88011000D01*
X133477000Y-88011000D01*
X133477000Y-89153915D01*
X133699039Y-89275904D01*
X134087423Y-89115041D01*
X134502389Y-88739134D01*
X134605014Y-88522297D01*
X134875302Y-88926811D01*
X135340849Y-89237880D01*
X135890000Y-89347113D01*
X136439151Y-89237880D01*
X136904698Y-88926811D01*
X137160000Y-88544725D01*
X137415302Y-88926811D01*
X137880849Y-89237880D01*
X138430000Y-89347113D01*
X138979151Y-89237880D01*
X139444698Y-88926811D01*
X139700000Y-88544725D01*
X139955302Y-88926811D01*
X140420849Y-89237880D01*
X140970000Y-89347113D01*
X141519151Y-89237880D01*
X141984698Y-88926811D01*
X142240000Y-88544725D01*
X142495302Y-88926811D01*
X142960849Y-89237880D01*
X143510000Y-89347113D01*
X144059151Y-89237880D01*
X144524698Y-88926811D01*
X144780000Y-88544725D01*
X145035302Y-88926811D01*
X145500849Y-89237880D01*
X146050000Y-89347113D01*
X146599151Y-89237880D01*
X147064698Y-88926811D01*
X147320000Y-88544725D01*
X147575302Y-88926811D01*
X148040849Y-89237880D01*
X148590000Y-89347113D01*
X149139151Y-89237880D01*
X149604698Y-88926811D01*
X149860000Y-88544725D01*
X150115302Y-88926811D01*
X150580849Y-89237880D01*
X151130000Y-89347113D01*
X151679151Y-89237880D01*
X152144698Y-88926811D01*
X152400000Y-88544725D01*
X152655302Y-88926811D01*
X153120849Y-89237880D01*
X153670000Y-89347113D01*
X154219151Y-89237880D01*
X154684698Y-88926811D01*
X154940000Y-88544725D01*
X155195302Y-88926811D01*
X155660849Y-89237880D01*
X156210000Y-89347113D01*
X156759151Y-89237880D01*
X157224698Y-88926811D01*
X157480000Y-88544725D01*
X157735302Y-88926811D01*
X158200849Y-89237880D01*
X158750000Y-89347113D01*
X159299151Y-89237880D01*
X159764698Y-88926811D01*
X159861101Y-88782535D01*
X159886838Y-88919317D01*
X160025910Y-89135441D01*
X160238110Y-89280431D01*
X160490000Y-89331440D01*
X162090000Y-89331440D01*
X162325317Y-89287162D01*
X162541441Y-89148090D01*
X162686431Y-88935890D01*
X162737440Y-88684000D01*
X162737440Y-88644000D01*
X183388000Y-88644000D01*
X183678839Y-88586148D01*
X183925401Y-88421401D01*
X184090148Y-88174839D01*
X184148000Y-87884000D01*
X184148000Y-80688000D01*
X184090148Y-80397161D01*
X183925401Y-80150599D01*
X183247401Y-79472599D01*
X183107440Y-79379080D01*
X183107440Y-79160000D01*
X183063162Y-78924683D01*
X182924090Y-78708559D01*
X182711890Y-78563569D01*
X182460000Y-78512560D01*
X180760000Y-78512560D01*
X180524683Y-78556838D01*
X180308559Y-78695910D01*
X180163569Y-78908110D01*
X180149914Y-78975541D01*
X180120054Y-78930853D01*
X179638285Y-78608946D01*
X179070000Y-78495907D01*
X178501715Y-78608946D01*
X178019946Y-78930853D01*
X177800000Y-79260026D01*
X177580054Y-78930853D01*
X177098285Y-78608946D01*
X176530000Y-78495907D01*
X175961715Y-78608946D01*
X175479946Y-78930853D01*
X175260000Y-79260026D01*
X175040054Y-78930853D01*
X174558285Y-78608946D01*
X174030783Y-78504019D01*
X174812802Y-77722000D01*
X177546000Y-77722000D01*
X177836839Y-77664148D01*
X178083401Y-77499401D01*
X179861401Y-75721401D01*
X180026148Y-75474839D01*
X180084000Y-75184000D01*
X180084000Y-74872995D01*
X180338698Y-74702811D01*
X180594000Y-74320725D01*
X180849302Y-74702811D01*
X181314849Y-75013880D01*
X181864000Y-75123113D01*
X182413151Y-75013880D01*
X182878698Y-74702811D01*
X183189767Y-74237264D01*
X183299000Y-73688113D01*
X183299000Y-73631887D01*
X183189767Y-73082736D01*
X182878698Y-72617189D01*
X182699000Y-72497118D01*
X182699000Y-71675926D01*
X182724317Y-71671162D01*
X182940441Y-71532090D01*
X183085431Y-71319890D01*
X183136440Y-71068000D01*
X183136440Y-69568000D01*
X183092162Y-69332683D01*
X182953090Y-69116559D01*
X182884994Y-69070031D01*
X183027327Y-68927698D01*
X183124000Y-68694309D01*
X183124000Y-68103750D01*
X182965250Y-67945000D01*
X181991000Y-67945000D01*
X181991000Y-67965000D01*
X181737000Y-67965000D01*
X181737000Y-67945000D01*
X180762750Y-67945000D01*
X180604000Y-68103750D01*
X180604000Y-68694309D01*
X180700673Y-68927698D01*
X180841910Y-69068936D01*
X180787559Y-69103910D01*
X180642569Y-69316110D01*
X180608773Y-69483000D01*
X179629868Y-69483000D01*
X178136434Y-67989566D01*
X178069736Y-67945000D01*
X177865541Y-67808561D01*
X177546000Y-67745000D01*
X165008513Y-67745000D01*
X165197535Y-67556308D01*
X165340181Y-67212780D01*
X165340319Y-67054000D01*
X167331537Y-67054000D01*
X167363673Y-67086192D01*
X167707201Y-67228838D01*
X168079167Y-67229162D01*
X168422943Y-67087117D01*
X168568623Y-66941691D01*
X180604000Y-66941691D01*
X180604000Y-67532250D01*
X180762750Y-67691000D01*
X181737000Y-67691000D01*
X181737000Y-66591750D01*
X181991000Y-66591750D01*
X181991000Y-67691000D01*
X182965250Y-67691000D01*
X183124000Y-67532250D01*
X183124000Y-66941691D01*
X183027327Y-66708302D01*
X182848699Y-66529673D01*
X182615310Y-66433000D01*
X182149750Y-66433000D01*
X181991000Y-66591750D01*
X181737000Y-66591750D01*
X181578250Y-66433000D01*
X181112690Y-66433000D01*
X180879301Y-66529673D01*
X180700673Y-66708302D01*
X180604000Y-66941691D01*
X168568623Y-66941691D01*
X168686192Y-66824327D01*
X168828838Y-66480799D01*
X168829162Y-66108833D01*
X168687117Y-65765057D01*
X168424327Y-65501808D01*
X168080799Y-65359162D01*
X167708833Y-65358838D01*
X167365057Y-65500883D01*
X167331882Y-65534000D01*
X167022103Y-65534000D01*
X167050838Y-65464799D01*
X167051162Y-65092833D01*
X166909117Y-64749057D01*
X166646327Y-64485808D01*
X166302799Y-64343162D01*
X165930833Y-64342838D01*
X165587057Y-64484883D01*
X165553882Y-64518000D01*
X157026463Y-64518000D01*
X157015283Y-64506801D01*
X157144838Y-64194799D01*
X157145162Y-63822833D01*
X157104121Y-63723506D01*
X166178547Y-63723506D01*
X166210683Y-63755698D01*
X166554211Y-63898344D01*
X166926177Y-63898668D01*
X167269953Y-63756623D01*
X167533202Y-63493833D01*
X167675848Y-63150305D01*
X167676172Y-62778339D01*
X167658678Y-62736000D01*
X168484527Y-62736000D01*
X168516663Y-62768192D01*
X168860191Y-62910838D01*
X169232157Y-62911162D01*
X169575933Y-62769117D01*
X169839182Y-62506327D01*
X169981828Y-62162799D01*
X169982152Y-61790833D01*
X169952884Y-61720000D01*
X170887537Y-61720000D01*
X170919673Y-61752192D01*
X171263201Y-61894838D01*
X171635167Y-61895162D01*
X171978943Y-61753117D01*
X172242192Y-61490327D01*
X172384838Y-61146799D01*
X172385162Y-60774833D01*
X172243117Y-60431057D01*
X171980327Y-60167808D01*
X171636799Y-60025162D01*
X171264833Y-60024838D01*
X170921057Y-60166883D01*
X170887882Y-60200000D01*
X152460802Y-60200000D01*
X152144000Y-59883198D01*
X152144000Y-59632995D01*
X152398698Y-59462811D01*
X152654000Y-59080725D01*
X152909302Y-59462811D01*
X153374849Y-59773880D01*
X153924000Y-59883113D01*
X154473151Y-59773880D01*
X154938698Y-59462811D01*
X155194000Y-59080725D01*
X155449302Y-59462811D01*
X155914849Y-59773880D01*
X156464000Y-59883113D01*
X157013151Y-59773880D01*
X157478698Y-59462811D01*
X157734000Y-59080725D01*
X157989302Y-59462811D01*
X158454849Y-59773880D01*
X159004000Y-59883113D01*
X159553151Y-59773880D01*
X160018698Y-59462811D01*
X160274000Y-59080725D01*
X160529302Y-59462811D01*
X160994849Y-59773880D01*
X161544000Y-59883113D01*
X162093151Y-59773880D01*
X162558698Y-59462811D01*
X162814000Y-59080725D01*
X163069302Y-59462811D01*
X163534849Y-59773880D01*
X164084000Y-59883113D01*
X164633151Y-59773880D01*
X165098698Y-59462811D01*
X165354000Y-59080725D01*
X165609302Y-59462811D01*
X166074849Y-59773880D01*
X166624000Y-59883113D01*
X167173151Y-59773880D01*
X167638698Y-59462811D01*
X167894000Y-59080725D01*
X168149302Y-59462811D01*
X168614849Y-59773880D01*
X169164000Y-59883113D01*
X169713151Y-59773880D01*
X170178698Y-59462811D01*
X170434000Y-59080725D01*
X170689302Y-59462811D01*
X171154849Y-59773880D01*
X171704000Y-59883113D01*
X172253151Y-59773880D01*
X172718698Y-59462811D01*
X172974000Y-59080725D01*
X173229302Y-59462811D01*
X173694849Y-59773880D01*
X174244000Y-59883113D01*
X174793151Y-59773880D01*
X175258698Y-59462811D01*
X175514000Y-59080725D01*
X175769302Y-59462811D01*
X176234849Y-59773880D01*
X176784000Y-59883113D01*
X177333151Y-59773880D01*
X177798698Y-59462811D01*
X178054000Y-59080725D01*
X178309302Y-59462811D01*
X178774849Y-59773880D01*
X179324000Y-59883113D01*
X179873151Y-59773880D01*
X180338698Y-59462811D01*
X180435101Y-59318535D01*
X180460838Y-59455317D01*
X180599910Y-59671441D01*
X180812110Y-59816431D01*
X181064000Y-59867440D01*
X182664000Y-59867440D01*
X182899317Y-59823162D01*
X183115441Y-59684090D01*
X183260431Y-59471890D01*
X183311440Y-59220000D01*
X183311440Y-57620000D01*
X183267162Y-57384683D01*
X183128090Y-57168559D01*
X182915890Y-57023569D01*
X182664000Y-56972560D01*
X181064000Y-56972560D01*
X180828683Y-57016838D01*
X180612559Y-57155910D01*
X180467569Y-57368110D01*
X180436185Y-57523089D01*
X180338698Y-57377189D01*
X179873151Y-57066120D01*
X179324000Y-56956887D01*
X178774849Y-57066120D01*
X178309302Y-57377189D01*
X178054000Y-57759275D01*
X177798698Y-57377189D01*
X177333151Y-57066120D01*
X176784000Y-56956887D01*
X176234849Y-57066120D01*
X175769302Y-57377189D01*
X175514000Y-57759275D01*
X175258698Y-57377189D01*
X174793151Y-57066120D01*
X174244000Y-56956887D01*
X173920114Y-57021312D01*
X172490773Y-55591971D01*
X172244211Y-55427224D01*
X171953372Y-55369372D01*
X143825430Y-55369372D01*
X145980114Y-53214688D01*
X146304000Y-53279113D01*
X146853151Y-53169880D01*
X147318698Y-52858811D01*
X147574000Y-52476725D01*
X147829302Y-52858811D01*
X148294849Y-53169880D01*
X148844000Y-53279113D01*
X149393151Y-53169880D01*
X149858698Y-52858811D01*
X150114000Y-52476725D01*
X150369302Y-52858811D01*
X150834849Y-53169880D01*
X151384000Y-53279113D01*
X151933151Y-53169880D01*
X152398698Y-52858811D01*
X152654000Y-52476725D01*
X152909302Y-52858811D01*
X153374849Y-53169880D01*
X153924000Y-53279113D01*
X154473151Y-53169880D01*
X154938698Y-52858811D01*
X155194000Y-52476725D01*
X155449302Y-52858811D01*
X155914849Y-53169880D01*
X156464000Y-53279113D01*
X157013151Y-53169880D01*
X157478698Y-52858811D01*
X157734000Y-52476725D01*
X157989302Y-52858811D01*
X158454849Y-53169880D01*
X159004000Y-53279113D01*
X159553151Y-53169880D01*
X160018698Y-52858811D01*
X160274000Y-52476725D01*
X160529302Y-52858811D01*
X160994849Y-53169880D01*
X161544000Y-53279113D01*
X162093151Y-53169880D01*
X162558698Y-52858811D01*
X162814000Y-52476725D01*
X163069302Y-52858811D01*
X163534849Y-53169880D01*
X164084000Y-53279113D01*
X164633151Y-53169880D01*
X165098698Y-52858811D01*
X165354000Y-52476725D01*
X165609302Y-52858811D01*
X166074849Y-53169880D01*
X166624000Y-53279113D01*
X167173151Y-53169880D01*
X167638698Y-52858811D01*
X167894000Y-52476725D01*
X168149302Y-52858811D01*
X168614849Y-53169880D01*
X169164000Y-53279113D01*
X169713151Y-53169880D01*
X170178698Y-52858811D01*
X170434000Y-52476725D01*
X170689302Y-52858811D01*
X171154849Y-53169880D01*
X171704000Y-53279113D01*
X172253151Y-53169880D01*
X172718698Y-52858811D01*
X172974000Y-52476725D01*
X173229302Y-52858811D01*
X173694849Y-53169880D01*
X174244000Y-53279113D01*
X174793151Y-53169880D01*
X175258698Y-52858811D01*
X175514000Y-52476725D01*
X175769302Y-52858811D01*
X176234849Y-53169880D01*
X176784000Y-53279113D01*
X177333151Y-53169880D01*
X177798698Y-52858811D01*
X178054000Y-52476725D01*
X178309302Y-52858811D01*
X178774849Y-53169880D01*
X179324000Y-53279113D01*
X179873151Y-53169880D01*
X180338698Y-52858811D01*
X180594000Y-52476725D01*
X180849302Y-52858811D01*
X181314849Y-53169880D01*
X181864000Y-53279113D01*
X182413151Y-53169880D01*
X182878698Y-52858811D01*
X183189767Y-52393264D01*
X183299000Y-51844113D01*
X183299000Y-51787887D01*
X183189767Y-51238736D01*
X182878698Y-50773189D01*
X182856308Y-50758228D01*
X182940441Y-50704090D01*
X183085431Y-50491890D01*
X183136440Y-50240000D01*
X183136440Y-48740000D01*
X183092162Y-48504683D01*
X182953090Y-48288559D01*
X182884994Y-48242031D01*
X183027327Y-48099698D01*
X183124000Y-47866309D01*
X183124000Y-47275750D01*
X182965250Y-47117000D01*
X181991000Y-47117000D01*
X181991000Y-47137000D01*
X181737000Y-47137000D01*
X181737000Y-47117000D01*
X180762750Y-47117000D01*
X180604000Y-47275750D01*
X180604000Y-47866309D01*
X180700673Y-48099698D01*
X180841910Y-48240936D01*
X180787559Y-48275910D01*
X180642569Y-48488110D01*
X180591560Y-48740000D01*
X180591560Y-50240000D01*
X180635838Y-50475317D01*
X180774910Y-50691441D01*
X180872180Y-50757903D01*
X180849302Y-50773189D01*
X180594000Y-51155275D01*
X180338698Y-50773189D01*
X179873151Y-50462120D01*
X179324000Y-50352887D01*
X178774849Y-50462120D01*
X178309302Y-50773189D01*
X178054000Y-51155275D01*
X177798698Y-50773189D01*
X177333151Y-50462120D01*
X176784000Y-50352887D01*
X176234849Y-50462120D01*
X175769302Y-50773189D01*
X175514000Y-51155275D01*
X175258698Y-50773189D01*
X174793151Y-50462120D01*
X174244000Y-50352887D01*
X173694849Y-50462120D01*
X173229302Y-50773189D01*
X172974000Y-51155275D01*
X172718698Y-50773189D01*
X172253151Y-50462120D01*
X171704000Y-50352887D01*
X171154849Y-50462120D01*
X170689302Y-50773189D01*
X170434000Y-51155275D01*
X170178698Y-50773189D01*
X169713151Y-50462120D01*
X169164000Y-50352887D01*
X168614849Y-50462120D01*
X168149302Y-50773189D01*
X167894000Y-51155275D01*
X167638698Y-50773189D01*
X167173151Y-50462120D01*
X166624000Y-50352887D01*
X166074849Y-50462120D01*
X165609302Y-50773189D01*
X165354000Y-51155275D01*
X165098698Y-50773189D01*
X164633151Y-50462120D01*
X164084000Y-50352887D01*
X163534849Y-50462120D01*
X163069302Y-50773189D01*
X162814000Y-51155275D01*
X162558698Y-50773189D01*
X162285275Y-50590493D01*
X162246148Y-50393791D01*
X162081401Y-50147229D01*
X161970172Y-50036000D01*
X171450000Y-50036000D01*
X171740839Y-49978148D01*
X171772399Y-49957060D01*
X171889167Y-49957162D01*
X172232943Y-49815117D01*
X172496192Y-49552327D01*
X172638838Y-49208799D01*
X172639162Y-48836833D01*
X172497117Y-48493057D01*
X172234327Y-48229808D01*
X171890799Y-48087162D01*
X171518833Y-48086838D01*
X171175057Y-48228883D01*
X170911808Y-48491673D01*
X170901706Y-48516000D01*
X143256000Y-48516000D01*
X142965161Y-48573852D01*
X142718599Y-48738599D01*
X141734440Y-49722758D01*
X141734440Y-49328000D01*
X141690162Y-49092683D01*
X141551090Y-48876559D01*
X141338890Y-48731569D01*
X141087000Y-48680560D01*
X139837000Y-48680560D01*
X139601683Y-48724838D01*
X139385559Y-48863910D01*
X139240569Y-49076110D01*
X139189560Y-49328000D01*
X139189560Y-50567604D01*
X139100787Y-50626920D01*
X139006833Y-50626838D01*
X138663057Y-50768883D01*
X138399808Y-51031673D01*
X138257162Y-51375201D01*
X138256838Y-51747167D01*
X138398883Y-52090943D01*
X138661673Y-52354192D01*
X139005201Y-52496838D01*
X139377167Y-52497162D01*
X139488888Y-52451000D01*
X140335000Y-52451000D01*
X140335000Y-52431000D01*
X140589000Y-52431000D01*
X140589000Y-52451000D01*
X141563250Y-52451000D01*
X141722000Y-52292250D01*
X141722000Y-51856464D01*
X141807400Y-51799402D01*
X142579527Y-51027275D01*
X142438233Y-51238736D01*
X142329000Y-51787887D01*
X142329000Y-51844113D01*
X142438233Y-52393264D01*
X142749302Y-52858811D01*
X142849462Y-52925736D01*
X142225197Y-53550001D01*
X141682363Y-53550001D01*
X141722000Y-53454309D01*
X141722000Y-52863750D01*
X141563250Y-52705000D01*
X140589000Y-52705000D01*
X140589000Y-52725000D01*
X140335000Y-52725000D01*
X140335000Y-52705000D01*
X139360750Y-52705000D01*
X139202000Y-52863750D01*
X139202000Y-53454309D01*
X139241637Y-53550001D01*
X139237999Y-53550001D01*
X138947160Y-53607853D01*
X138846787Y-53674920D01*
X138752833Y-53674838D01*
X138409057Y-53816883D01*
X138145808Y-54079673D01*
X138003162Y-54423201D01*
X138002838Y-54795167D01*
X138144883Y-55138943D01*
X138407673Y-55402192D01*
X138599009Y-55481642D01*
X138511162Y-55693201D01*
X138510838Y-56065167D01*
X138652883Y-56408943D01*
X138915673Y-56672192D01*
X139259201Y-56814838D01*
X139631167Y-56815162D01*
X139974943Y-56673117D01*
X139987318Y-56660764D01*
X140247663Y-56921564D01*
X140591191Y-57064210D01*
X140963157Y-57064534D01*
X141306933Y-56922489D01*
X141340108Y-56889372D01*
X171638570Y-56889372D01*
X171706603Y-56957405D01*
X171704000Y-56956887D01*
X171154849Y-57066120D01*
X170689302Y-57377189D01*
X170434000Y-57759275D01*
X170178698Y-57377189D01*
X169713151Y-57066120D01*
X169164000Y-56956887D01*
X168614849Y-57066120D01*
X168149302Y-57377189D01*
X167894000Y-57759275D01*
X167638698Y-57377189D01*
X167173151Y-57066120D01*
X166624000Y-56956887D01*
X166074849Y-57066120D01*
X165609302Y-57377189D01*
X165354000Y-57759275D01*
X165098698Y-57377189D01*
X164633151Y-57066120D01*
X164084000Y-56956887D01*
X163534849Y-57066120D01*
X163069302Y-57377189D01*
X162814000Y-57759275D01*
X162558698Y-57377189D01*
X162093151Y-57066120D01*
X161544000Y-56956887D01*
X160994849Y-57066120D01*
X160529302Y-57377189D01*
X160274000Y-57759275D01*
X160018698Y-57377189D01*
X159553151Y-57066120D01*
X159004000Y-56956887D01*
X158454849Y-57066120D01*
X157989302Y-57377189D01*
X157734000Y-57759275D01*
X157478698Y-57377189D01*
X157013151Y-57066120D01*
X156464000Y-56956887D01*
X155914849Y-57066120D01*
X155449302Y-57377189D01*
X155194000Y-57759275D01*
X154938698Y-57377189D01*
X154473151Y-57066120D01*
X153924000Y-56956887D01*
X153374849Y-57066120D01*
X152909302Y-57377189D01*
X152654000Y-57759275D01*
X152398698Y-57377189D01*
X151933151Y-57066120D01*
X151384000Y-56956887D01*
X150834849Y-57066120D01*
X150369302Y-57377189D01*
X150114000Y-57759275D01*
X149858698Y-57377189D01*
X149393151Y-57066120D01*
X148844000Y-56956887D01*
X148294849Y-57066120D01*
X147829302Y-57377189D01*
X147574000Y-57759275D01*
X147318698Y-57377189D01*
X146853151Y-57066120D01*
X146304000Y-56956887D01*
X145754849Y-57066120D01*
X145289302Y-57377189D01*
X145019014Y-57781703D01*
X144916389Y-57564866D01*
X144501423Y-57188959D01*
X144113039Y-57028096D01*
X143891000Y-57150085D01*
X143891000Y-58293000D01*
X143911000Y-58293000D01*
X143911000Y-58547000D01*
X143891000Y-58547000D01*
X143891000Y-59689915D01*
X144113039Y-59811904D01*
X144501423Y-59651041D01*
X144916389Y-59275134D01*
X145019014Y-59058297D01*
X145289302Y-59462811D01*
X145562725Y-59645507D01*
X145601852Y-59842209D01*
X145766599Y-60088771D01*
X148925828Y-63248000D01*
X148904802Y-63248000D01*
X147603401Y-61946599D01*
X147356839Y-61781852D01*
X147066000Y-61724000D01*
X136037800Y-61724000D01*
X137311800Y-60450000D01*
X138375537Y-60450000D01*
X138407673Y-60482192D01*
X138751201Y-60624838D01*
X139123167Y-60625162D01*
X139466943Y-60483117D01*
X139730192Y-60220327D01*
X139872838Y-59876799D01*
X139873162Y-59504833D01*
X139731117Y-59161057D01*
X139468327Y-58897808D01*
X139158224Y-58769041D01*
X142372086Y-58769041D01*
X142611611Y-59275134D01*
X143026577Y-59651041D01*
X143414961Y-59811904D01*
X143637000Y-59689915D01*
X143637000Y-58547000D01*
X142493371Y-58547000D01*
X142372086Y-58769041D01*
X139158224Y-58769041D01*
X139124799Y-58755162D01*
X138752833Y-58754838D01*
X138409057Y-58896883D01*
X138375882Y-58930000D01*
X136996998Y-58930000D01*
X136706158Y-58987852D01*
X136459597Y-59152599D01*
X134396196Y-61216000D01*
X130102463Y-61216000D01*
X130070327Y-61183808D01*
X129726799Y-61041162D01*
X129717000Y-61041153D01*
X129717000Y-58070959D01*
X142372086Y-58070959D01*
X142493371Y-58293000D01*
X143637000Y-58293000D01*
X143637000Y-57150085D01*
X143414961Y-57028096D01*
X143026577Y-57188959D01*
X142611611Y-57564866D01*
X142372086Y-58070959D01*
X129717000Y-58070959D01*
X129717000Y-49448934D01*
X129979167Y-49449162D01*
X130322943Y-49307117D01*
X130356118Y-49274000D01*
X138430000Y-49274000D01*
X138720839Y-49216148D01*
X138967401Y-49051401D01*
X140237401Y-47781401D01*
X140402148Y-47534840D01*
X140460000Y-47244000D01*
X140460000Y-47044463D01*
X140492192Y-47012327D01*
X140634838Y-46668799D01*
X140635162Y-46296833D01*
X140500944Y-45972000D01*
X180662690Y-45972000D01*
X180604000Y-46113691D01*
X180604000Y-46704250D01*
X180762750Y-46863000D01*
X181737000Y-46863000D01*
X181737000Y-46843000D01*
X181991000Y-46843000D01*
X181991000Y-46863000D01*
X182965250Y-46863000D01*
X183124000Y-46704250D01*
X183124000Y-46113691D01*
X183027327Y-45880302D01*
X182848699Y-45701673D01*
X182698847Y-45639602D01*
X182798838Y-45398799D01*
X182799162Y-45026833D01*
X182657117Y-44683057D01*
X182394327Y-44419808D01*
X182050799Y-44277162D01*
X181678833Y-44276838D01*
X181335057Y-44418883D01*
X181301882Y-44452000D01*
X180258999Y-44452000D01*
X180259162Y-44264833D01*
X180117117Y-43921057D01*
X179854327Y-43657808D01*
X179510799Y-43515162D01*
X179138833Y-43514838D01*
X178826234Y-43644001D01*
X149565405Y-43644001D01*
X149636192Y-43573337D01*
X149778838Y-43229809D01*
X149779162Y-42857843D01*
X149758153Y-42806998D01*
X150533059Y-42806998D01*
X150590883Y-42946943D01*
X150853673Y-43210192D01*
X151197201Y-43352838D01*
X151569167Y-43353162D01*
X151912943Y-43211117D01*
X152176192Y-42948327D01*
X152318838Y-42604799D01*
X152319054Y-42356979D01*
X153804177Y-42356979D01*
X154004878Y-42557680D01*
X154004838Y-42603167D01*
X154146883Y-42946943D01*
X154409673Y-43210192D01*
X154753201Y-43352838D01*
X155125167Y-43353162D01*
X155468943Y-43211117D01*
X155732192Y-42948327D01*
X155874838Y-42604799D01*
X155875162Y-42232833D01*
X155733117Y-41889057D01*
X155470327Y-41625808D01*
X155126799Y-41483162D01*
X155079923Y-41483121D01*
X154656380Y-41059578D01*
X154409818Y-40894831D01*
X154118979Y-40836979D01*
X141722000Y-40836979D01*
X141722000Y-40397750D01*
X141563250Y-40239000D01*
X140589000Y-40239000D01*
X140589000Y-40259000D01*
X140335000Y-40259000D01*
X140335000Y-40239000D01*
X139360750Y-40239000D01*
X139202000Y-40397750D01*
X139202000Y-40936196D01*
X139130403Y-40864599D01*
X138883841Y-40699852D01*
X138593002Y-40642000D01*
X134166463Y-40642000D01*
X134134327Y-40609808D01*
X133790799Y-40467162D01*
X133418833Y-40466838D01*
X133075057Y-40608883D01*
X132811808Y-40871673D01*
X132669162Y-41215201D01*
X132668838Y-41587167D01*
X132810883Y-41930943D01*
X132916710Y-42036954D01*
X132811808Y-42141673D01*
X132669162Y-42485201D01*
X132668838Y-42857167D01*
X132810883Y-43200943D01*
X133073673Y-43464192D01*
X133417201Y-43606838D01*
X133464077Y-43606879D01*
X133639719Y-43782521D01*
X133329057Y-43910883D01*
X133065808Y-44173673D01*
X132923162Y-44517201D01*
X132922838Y-44889167D01*
X133064883Y-45232943D01*
X133327673Y-45496192D01*
X133671201Y-45638838D01*
X134043167Y-45639162D01*
X134386943Y-45497117D01*
X134650192Y-45234327D01*
X134679394Y-45164001D01*
X138257041Y-45164001D01*
X138256838Y-45397167D01*
X138398883Y-45740943D01*
X138661673Y-46004192D01*
X138853009Y-46083642D01*
X138765162Y-46295201D01*
X138764838Y-46667167D01*
X138892665Y-46976533D01*
X138115198Y-47754000D01*
X130356463Y-47754000D01*
X130324327Y-47721808D01*
X129980799Y-47579162D01*
X129717000Y-47578932D01*
X129717000Y-35687000D01*
X142648996Y-35687000D01*
X142611611Y-35720866D01*
M02*
