M48
;DRILL file {KiCad 4.0.7-e2-6376~58~ubuntu16.04.1} date Thu Mar 10 23:02:30 2022
;FORMAT={-:-/ absolute / inch / decimal}
FMAT,2
INCH,TZ
T1C0.016
T2C0.031
T3C0.039
%
G90
G05
M72
T1
X5.1Y-2.44
X5.11Y-1.91
X5.1522Y-2.6097
X5.16Y-2.35
X5.17Y-2.66
X5.17Y-2.91
X5.18Y-1.83
X5.26Y-1.63
X5.26Y-1.68
X5.26Y-3.04
X5.27Y-1.76
X5.28Y-1.53
X5.2954Y-2.49
X5.32Y-2.46
X5.46Y-2.71
X5.47Y-1.68
X5.47Y-2.15
X5.47Y-2.35
X5.48Y-1.78
X5.48Y-2.03
X5.48Y-2.81
X5.4854Y-2.76
X5.49Y-2.2
X5.5Y-1.83
X5.51Y-2.72
X5.52Y-1.6377
X5.53Y-1.48
X5.53Y-1.9716
X5.5424Y-2.2098
X5.55Y-2.78
X5.57Y-2.56
X5.66Y-2.66
X5.67Y-1.58
X5.67Y-1.85
X5.74Y-3.04
X5.76Y-1.68
X5.86Y-1.6946
X5.89Y-2.7
X5.9Y-3.11
X5.9016Y-3.2016
X5.96Y-1.67
X5.9624Y-2.6388
X6.06Y-2.5446
X6.1Y-1.67
X6.15Y-2.52
X6.16Y-2.57
X6.21Y-2.75
X6.2526Y-2.7276
X6.2719Y-2.7525
X6.35Y-2.78
X6.3746Y-3.08
X6.4155Y-3.0697
X6.42Y-3.
X6.43Y-3.04
X6.45Y-3.68
X6.461Y-2.978
X6.4727Y-2.6388
X6.53Y-3.6108
X6.54Y-2.57
X6.5646Y-2.4789
X6.61Y-2.61
X6.6554Y-2.44
X6.68Y-2.75
X6.75Y-2.4
X6.76Y-1.93
X6.85Y-3.67
X6.9Y-3.35
X7.06Y-1.75
X7.15Y-3.73
X7.16Y-1.78
T2
X5.25Y-3.46
X5.25Y-3.76
X5.35Y-3.46
X5.35Y-3.76
X5.45Y-3.46
X5.45Y-3.76
X5.55Y-3.46
X5.55Y-3.76
X5.65Y-3.46
X5.65Y-3.76
X5.66Y-1.44
X5.66Y-2.04
X5.66Y-2.3
X5.66Y-2.9
X5.75Y-3.46
X5.75Y-3.76
X5.76Y-1.44
X5.76Y-2.04
X5.76Y-2.3
X5.76Y-2.9
X5.85Y-3.46
X5.85Y-3.76
X5.86Y-1.44
X5.86Y-2.04
X5.86Y-2.3
X5.86Y-2.9
X5.95Y-3.46
X5.95Y-3.76
X5.96Y-1.44
X5.96Y-2.04
X5.96Y-2.3
X5.96Y-2.9
X6.05Y-3.46
X6.05Y-3.76
X6.06Y-1.44
X6.06Y-2.04
X6.06Y-2.3
X6.06Y-2.9
X6.15Y-3.46
X6.15Y-3.76
X6.16Y-1.44
X6.16Y-2.04
X6.16Y-2.3
X6.16Y-2.9
X6.25Y-3.46
X6.25Y-3.76
X6.26Y-1.44
X6.26Y-2.04
X6.26Y-2.3
X6.26Y-2.9
X6.35Y-3.46
X6.35Y-3.76
X6.36Y-1.44
X6.36Y-2.04
X6.36Y-2.3
X6.36Y-2.9
X6.46Y-1.44
X6.46Y-2.04
X6.46Y-2.3
X6.46Y-2.9
X6.56Y-1.44
X6.56Y-2.04
X6.56Y-2.3
X6.56Y-2.9
X6.66Y-1.44
X6.66Y-2.04
X6.66Y-2.3
X6.66Y-2.9
X6.76Y-1.44
X6.76Y-2.04
X6.76Y-2.3
X6.76Y-2.9
X6.86Y-1.44
X6.86Y-2.04
X6.86Y-2.3
X6.86Y-2.9
X6.96Y-1.44
X6.96Y-2.04
X6.96Y-2.3
X6.96Y-2.9
X7.06Y-1.44
X7.06Y-2.04
X7.06Y-2.3
X7.06Y-2.9
X7.16Y-1.44
X7.16Y-2.04
X7.16Y-2.3
X7.16Y-2.9
T3
X5.25Y-3.15
X5.25Y-3.25
X5.35Y-3.15
X5.35Y-3.25
X5.45Y-3.15
X5.45Y-3.25
X5.55Y-3.15
X5.55Y-3.25
X5.65Y-3.15
X5.65Y-3.25
X5.75Y-3.15
X5.75Y-3.25
X5.85Y-3.15
X5.85Y-3.25
X5.95Y-3.15
X5.95Y-3.25
X6.05Y-3.15
X6.05Y-3.25
X6.15Y-3.15
X6.15Y-3.25
X6.25Y-3.15
X6.25Y-3.25
X6.35Y-3.15
X6.35Y-3.25
X6.45Y-3.15
X6.45Y-3.25
X6.55Y-3.15
X6.55Y-3.25
X6.65Y-3.15
X6.65Y-3.25
X6.75Y-3.15
X6.75Y-3.25
X6.85Y-3.15
X6.85Y-3.25
X6.95Y-3.15
X6.95Y-3.25
X7.05Y-3.15
X7.05Y-3.25
X7.15Y-3.15
X7.15Y-3.25
T0
M30
